G04 EAGLE Gerber RS-274X export*
G75*
%MOMM*%
%FSLAX34Y34*%
%LPD*%
%IN*%
%IPPOS*%
%AMOC8*
5,1,8,0,0,1.08239X$1,22.5*%
G01*
%ADD10C,0.254000*%


D10*
X0Y0D02*
X750000Y0D01*
X750500Y410500D01*
X500Y410500D01*
X0Y0D01*
X9000Y285000D02*
X9010Y284782D01*
X9038Y284566D01*
X9085Y284353D01*
X9151Y284145D01*
X9234Y283943D01*
X9335Y283750D01*
X9452Y283566D01*
X9585Y283393D01*
X9732Y283232D01*
X9893Y283085D01*
X10066Y282952D01*
X10250Y282835D01*
X10443Y282734D01*
X10645Y282651D01*
X10853Y282585D01*
X11066Y282538D01*
X11282Y282510D01*
X11500Y282500D01*
X18500Y282500D01*
X18718Y282510D01*
X18934Y282538D01*
X19147Y282585D01*
X19355Y282651D01*
X19557Y282734D01*
X19750Y282835D01*
X19934Y282952D01*
X20107Y283085D01*
X20268Y283232D01*
X20415Y283393D01*
X20548Y283566D01*
X20665Y283750D01*
X20766Y283943D01*
X20849Y284145D01*
X20915Y284353D01*
X20962Y284566D01*
X20991Y284782D01*
X21000Y285000D01*
X20991Y285218D01*
X20962Y285434D01*
X20915Y285647D01*
X20849Y285855D01*
X20766Y286057D01*
X20665Y286250D01*
X20548Y286434D01*
X20415Y286607D01*
X20268Y286768D01*
X20107Y286915D01*
X19934Y287048D01*
X19750Y287165D01*
X19557Y287266D01*
X19355Y287349D01*
X19147Y287415D01*
X18934Y287462D01*
X18718Y287491D01*
X18500Y287500D01*
X11500Y287500D01*
X11282Y287491D01*
X11066Y287462D01*
X10853Y287415D01*
X10645Y287349D01*
X10443Y287266D01*
X10250Y287165D01*
X10066Y287048D01*
X9893Y286915D01*
X9732Y286768D01*
X9585Y286607D01*
X9452Y286434D01*
X9335Y286250D01*
X9234Y286057D01*
X9151Y285855D01*
X9085Y285647D01*
X9038Y285434D01*
X9010Y285218D01*
X9000Y285000D01*
X9000Y351000D02*
X9010Y350782D01*
X9038Y350566D01*
X9085Y350353D01*
X9151Y350145D01*
X9234Y349943D01*
X9335Y349750D01*
X9452Y349566D01*
X9585Y349393D01*
X9732Y349232D01*
X9893Y349085D01*
X10066Y348952D01*
X10250Y348835D01*
X10443Y348734D01*
X10645Y348651D01*
X10853Y348585D01*
X11066Y348538D01*
X11282Y348510D01*
X11500Y348500D01*
X18500Y348500D01*
X18718Y348510D01*
X18934Y348538D01*
X19147Y348585D01*
X19355Y348651D01*
X19557Y348734D01*
X19750Y348835D01*
X19934Y348952D01*
X20107Y349085D01*
X20268Y349232D01*
X20415Y349393D01*
X20548Y349566D01*
X20665Y349750D01*
X20766Y349943D01*
X20849Y350145D01*
X20915Y350353D01*
X20962Y350566D01*
X20991Y350782D01*
X21000Y351000D01*
X20991Y351218D01*
X20962Y351434D01*
X20915Y351647D01*
X20849Y351855D01*
X20766Y352057D01*
X20665Y352250D01*
X20548Y352434D01*
X20415Y352607D01*
X20268Y352768D01*
X20107Y352915D01*
X19934Y353048D01*
X19750Y353165D01*
X19557Y353266D01*
X19355Y353349D01*
X19147Y353415D01*
X18934Y353462D01*
X18718Y353491D01*
X18500Y353500D01*
X11500Y353500D01*
X11282Y353491D01*
X11066Y353462D01*
X10853Y353415D01*
X10645Y353349D01*
X10443Y353266D01*
X10250Y353165D01*
X10066Y353048D01*
X9893Y352915D01*
X9732Y352768D01*
X9585Y352607D01*
X9452Y352434D01*
X9335Y352250D01*
X9234Y352057D01*
X9151Y351855D01*
X9085Y351647D01*
X9038Y351434D01*
X9010Y351218D01*
X9000Y351000D01*
X745000Y386063D02*
X744924Y385194D01*
X744772Y384334D01*
X744546Y383490D01*
X744248Y382670D01*
X743879Y381878D01*
X743442Y381122D01*
X742941Y380407D01*
X742380Y379738D01*
X741762Y379120D01*
X741093Y378559D01*
X740378Y378058D01*
X739622Y377621D01*
X738830Y377252D01*
X738010Y376954D01*
X737166Y376728D01*
X736307Y376576D01*
X735437Y376500D01*
X734563Y376500D01*
X733694Y376576D01*
X732834Y376728D01*
X731990Y376954D01*
X731170Y377252D01*
X730378Y377621D01*
X729622Y378058D01*
X728907Y378559D01*
X728238Y379120D01*
X727620Y379738D01*
X727059Y380407D01*
X726558Y381122D01*
X726121Y381878D01*
X725752Y382670D01*
X725454Y383490D01*
X725228Y384334D01*
X725076Y385194D01*
X725000Y386063D01*
X725000Y386937D01*
X725076Y387807D01*
X725228Y388666D01*
X725454Y389510D01*
X725752Y390330D01*
X726121Y391122D01*
X726558Y391878D01*
X727059Y392593D01*
X727620Y393262D01*
X728238Y393880D01*
X728907Y394441D01*
X729622Y394942D01*
X730378Y395379D01*
X731170Y395748D01*
X731990Y396046D01*
X732834Y396272D01*
X733694Y396424D01*
X734563Y396500D01*
X735437Y396500D01*
X736307Y396424D01*
X737166Y396272D01*
X738010Y396046D01*
X738830Y395748D01*
X739622Y395379D01*
X740378Y394942D01*
X741093Y394441D01*
X741762Y393880D01*
X742380Y393262D01*
X742941Y392593D01*
X743442Y391878D01*
X743879Y391122D01*
X744248Y390330D01*
X744546Y389510D01*
X744772Y388666D01*
X744924Y387807D01*
X745000Y386937D01*
X745000Y386063D01*
X745000Y16063D02*
X744924Y15194D01*
X744772Y14334D01*
X744546Y13490D01*
X744248Y12670D01*
X743879Y11878D01*
X743442Y11122D01*
X742941Y10407D01*
X742380Y9738D01*
X741762Y9120D01*
X741093Y8559D01*
X740378Y8058D01*
X739622Y7621D01*
X738830Y7252D01*
X738010Y6954D01*
X737166Y6728D01*
X736307Y6576D01*
X735437Y6500D01*
X734563Y6500D01*
X733694Y6576D01*
X732834Y6728D01*
X731990Y6954D01*
X731170Y7252D01*
X730378Y7621D01*
X729622Y8058D01*
X728907Y8559D01*
X728238Y9120D01*
X727620Y9738D01*
X727059Y10407D01*
X726558Y11122D01*
X726121Y11878D01*
X725752Y12670D01*
X725454Y13490D01*
X725228Y14334D01*
X725076Y15194D01*
X725000Y16063D01*
X725000Y16937D01*
X725076Y17807D01*
X725228Y18666D01*
X725454Y19510D01*
X725752Y20330D01*
X726121Y21122D01*
X726558Y21878D01*
X727059Y22593D01*
X727620Y23262D01*
X728238Y23880D01*
X728907Y24441D01*
X729622Y24942D01*
X730378Y25379D01*
X731170Y25748D01*
X731990Y26046D01*
X732834Y26272D01*
X733694Y26424D01*
X734563Y26500D01*
X735437Y26500D01*
X736307Y26424D01*
X737166Y26272D01*
X738010Y26046D01*
X738830Y25748D01*
X739622Y25379D01*
X740378Y24942D01*
X741093Y24441D01*
X741762Y23880D01*
X742380Y23262D01*
X742941Y22593D01*
X743442Y21878D01*
X743879Y21122D01*
X744248Y20330D01*
X744546Y19510D01*
X744772Y18666D01*
X744924Y17807D01*
X745000Y16937D01*
X745000Y16063D01*
X25000Y396063D02*
X24924Y395194D01*
X24772Y394334D01*
X24546Y393490D01*
X24248Y392670D01*
X23879Y391878D01*
X23442Y391122D01*
X22941Y390407D01*
X22380Y389738D01*
X21762Y389120D01*
X21093Y388559D01*
X20378Y388058D01*
X19622Y387621D01*
X18830Y387252D01*
X18010Y386954D01*
X17166Y386728D01*
X16307Y386576D01*
X15437Y386500D01*
X14563Y386500D01*
X13694Y386576D01*
X12834Y386728D01*
X11990Y386954D01*
X11170Y387252D01*
X10378Y387621D01*
X9622Y388058D01*
X8907Y388559D01*
X8238Y389120D01*
X7620Y389738D01*
X7059Y390407D01*
X6558Y391122D01*
X6121Y391878D01*
X5752Y392670D01*
X5454Y393490D01*
X5228Y394334D01*
X5076Y395194D01*
X5000Y396063D01*
X5000Y396937D01*
X5076Y397807D01*
X5228Y398666D01*
X5454Y399510D01*
X5752Y400330D01*
X6121Y401122D01*
X6558Y401878D01*
X7059Y402593D01*
X7620Y403262D01*
X8238Y403880D01*
X8907Y404441D01*
X9622Y404942D01*
X10378Y405379D01*
X11170Y405748D01*
X11990Y406046D01*
X12834Y406272D01*
X13694Y406424D01*
X14563Y406500D01*
X15437Y406500D01*
X16307Y406424D01*
X17166Y406272D01*
X18010Y406046D01*
X18830Y405748D01*
X19622Y405379D01*
X20378Y404942D01*
X21093Y404441D01*
X21762Y403880D01*
X22380Y403262D01*
X22941Y402593D01*
X23442Y401878D01*
X23879Y401122D01*
X24248Y400330D01*
X24546Y399510D01*
X24772Y398666D01*
X24924Y397807D01*
X25000Y396937D01*
X25000Y396063D01*
X25000Y171063D02*
X24924Y170194D01*
X24772Y169334D01*
X24546Y168490D01*
X24248Y167670D01*
X23879Y166878D01*
X23442Y166122D01*
X22941Y165407D01*
X22380Y164738D01*
X21762Y164120D01*
X21093Y163559D01*
X20378Y163058D01*
X19622Y162621D01*
X18830Y162252D01*
X18010Y161954D01*
X17166Y161728D01*
X16307Y161576D01*
X15437Y161500D01*
X14563Y161500D01*
X13694Y161576D01*
X12834Y161728D01*
X11990Y161954D01*
X11170Y162252D01*
X10378Y162621D01*
X9622Y163058D01*
X8907Y163559D01*
X8238Y164120D01*
X7620Y164738D01*
X7059Y165407D01*
X6558Y166122D01*
X6121Y166878D01*
X5752Y167670D01*
X5454Y168490D01*
X5228Y169334D01*
X5076Y170194D01*
X5000Y171063D01*
X5000Y171937D01*
X5076Y172807D01*
X5228Y173666D01*
X5454Y174510D01*
X5752Y175330D01*
X6121Y176122D01*
X6558Y176878D01*
X7059Y177593D01*
X7620Y178262D01*
X8238Y178880D01*
X8907Y179441D01*
X9622Y179942D01*
X10378Y180379D01*
X11170Y180748D01*
X11990Y181046D01*
X12834Y181272D01*
X13694Y181424D01*
X14563Y181500D01*
X15437Y181500D01*
X16307Y181424D01*
X17166Y181272D01*
X18010Y181046D01*
X18830Y180748D01*
X19622Y180379D01*
X20378Y179942D01*
X21093Y179441D01*
X21762Y178880D01*
X22380Y178262D01*
X22941Y177593D01*
X23442Y176878D01*
X23879Y176122D01*
X24248Y175330D01*
X24546Y174510D01*
X24772Y173666D01*
X24924Y172807D01*
X25000Y171937D01*
X25000Y171063D01*
M02*
