G04 EAGLE Gerber RS-274X export*
G75*
%MOMM*%
%FSLAX34Y34*%
%LPD*%
%INSilkscreen Bottom*%
%IPPOS*%
%AMOC8*
5,1,8,0,0,1.08239X$1,22.5*%
G01*
%ADD10C,0.200000*%
%ADD11C,0.127000*%
%ADD12C,0.203200*%
%ADD13C,0.152400*%
%ADD14C,0.050800*%

G36*
X15565Y232377D02*
X15565Y232377D01*
X15631Y232379D01*
X15674Y232397D01*
X15721Y232405D01*
X15778Y232439D01*
X15838Y232464D01*
X15873Y232495D01*
X15914Y232520D01*
X15956Y232571D01*
X16004Y232615D01*
X16026Y232657D01*
X16055Y232694D01*
X16076Y232756D01*
X16107Y232815D01*
X16115Y232869D01*
X16127Y232906D01*
X16126Y232946D01*
X16134Y233000D01*
X16134Y235000D01*
X16123Y235065D01*
X16121Y235131D01*
X16103Y235174D01*
X16095Y235221D01*
X16061Y235278D01*
X16036Y235338D01*
X16005Y235373D01*
X15980Y235414D01*
X15929Y235456D01*
X15885Y235504D01*
X15843Y235526D01*
X15806Y235555D01*
X15744Y235576D01*
X15685Y235607D01*
X15631Y235615D01*
X15594Y235627D01*
X15554Y235626D01*
X15500Y235634D01*
X500Y235634D01*
X435Y235623D01*
X369Y235621D01*
X326Y235603D01*
X279Y235595D01*
X222Y235561D01*
X162Y235536D01*
X127Y235505D01*
X86Y235480D01*
X45Y235429D01*
X-4Y235385D01*
X-26Y235343D01*
X-55Y235306D01*
X-76Y235244D01*
X-107Y235185D01*
X-115Y235131D01*
X-127Y235094D01*
X-126Y235054D01*
X-134Y235000D01*
X-134Y233000D01*
X-123Y232935D01*
X-121Y232869D01*
X-103Y232826D01*
X-95Y232779D01*
X-61Y232722D01*
X-36Y232662D01*
X-5Y232627D01*
X20Y232586D01*
X71Y232545D01*
X115Y232496D01*
X157Y232474D01*
X194Y232445D01*
X256Y232424D01*
X315Y232393D01*
X369Y232385D01*
X406Y232373D01*
X446Y232374D01*
X500Y232366D01*
X15500Y232366D01*
X15565Y232377D01*
G37*
G36*
X695609Y27235D02*
X695609Y27235D01*
X695652Y27249D01*
X695769Y27278D01*
X696363Y27524D01*
X696400Y27548D01*
X696506Y27606D01*
X697016Y27997D01*
X697046Y28031D01*
X697133Y28114D01*
X697524Y28624D01*
X697544Y28664D01*
X697590Y28740D01*
X697592Y28742D01*
X697592Y28744D01*
X697606Y28767D01*
X697852Y29361D01*
X697862Y29405D01*
X697895Y29521D01*
X697979Y30157D01*
X697977Y30202D01*
X697979Y30323D01*
X697892Y30980D01*
X697879Y31023D01*
X697849Y31140D01*
X697596Y31753D01*
X697572Y31790D01*
X697513Y31896D01*
X697109Y32422D01*
X697076Y32452D01*
X696992Y32539D01*
X696466Y32943D01*
X696426Y32964D01*
X696323Y33026D01*
X695710Y33279D01*
X695666Y33289D01*
X695550Y33322D01*
X694893Y33409D01*
X694848Y33407D01*
X694727Y33409D01*
X694091Y33325D01*
X694048Y33311D01*
X693931Y33282D01*
X693337Y33036D01*
X693300Y33012D01*
X693194Y32954D01*
X692684Y32563D01*
X692654Y32529D01*
X692567Y32446D01*
X692176Y31936D01*
X692157Y31899D01*
X692151Y31892D01*
X692149Y31885D01*
X692094Y31793D01*
X691848Y31199D01*
X691838Y31155D01*
X691811Y31060D01*
X691806Y31045D01*
X691806Y31043D01*
X691805Y31039D01*
X691721Y30403D01*
X691723Y30358D01*
X691721Y30237D01*
X691808Y29580D01*
X691813Y29563D01*
X691813Y29552D01*
X691825Y29525D01*
X691851Y29420D01*
X692104Y28807D01*
X692129Y28770D01*
X692137Y28753D01*
X692155Y28710D01*
X692171Y28692D01*
X692187Y28664D01*
X692591Y28138D01*
X692624Y28108D01*
X692708Y28021D01*
X693234Y27617D01*
X693274Y27596D01*
X693377Y27534D01*
X693990Y27281D01*
X694034Y27271D01*
X694150Y27238D01*
X694807Y27151D01*
X694852Y27153D01*
X694973Y27151D01*
X695609Y27235D01*
G37*
G36*
X8018Y247874D02*
X8018Y247874D01*
X8084Y247871D01*
X8129Y247886D01*
X8176Y247891D01*
X8235Y247920D01*
X8298Y247940D01*
X8342Y247973D01*
X8377Y247990D01*
X8404Y248019D01*
X8448Y248052D01*
X11448Y251052D01*
X11499Y251125D01*
X11555Y251194D01*
X11563Y251216D01*
X11577Y251236D01*
X11599Y251322D01*
X11627Y251406D01*
X11627Y251430D01*
X11633Y251453D01*
X11623Y251542D01*
X11621Y251631D01*
X11612Y251653D01*
X11609Y251676D01*
X11570Y251756D01*
X11536Y251838D01*
X11520Y251856D01*
X11510Y251877D01*
X11445Y251938D01*
X11385Y252004D01*
X11364Y252015D01*
X11347Y252031D01*
X11265Y252066D01*
X11185Y252107D01*
X11159Y252110D01*
X11140Y252119D01*
X11090Y252121D01*
X11000Y252134D01*
X5000Y252134D01*
X4912Y252118D01*
X4824Y252109D01*
X4803Y252099D01*
X4779Y252095D01*
X4702Y252049D01*
X4623Y252010D01*
X4606Y251993D01*
X4586Y251980D01*
X4530Y251911D01*
X4469Y251847D01*
X4460Y251825D01*
X4445Y251806D01*
X4416Y251722D01*
X4381Y251640D01*
X4380Y251616D01*
X4373Y251594D01*
X4375Y251505D01*
X4371Y251416D01*
X4379Y251393D01*
X4379Y251369D01*
X4413Y251287D01*
X4440Y251202D01*
X4456Y251181D01*
X4464Y251162D01*
X4498Y251124D01*
X4552Y251052D01*
X7552Y248052D01*
X7606Y248014D01*
X7653Y247969D01*
X7697Y247950D01*
X7736Y247923D01*
X7799Y247907D01*
X7860Y247881D01*
X7907Y247879D01*
X7953Y247868D01*
X8018Y247874D01*
G37*
D10*
X61650Y145000D02*
X61650Y71000D01*
X61650Y7500D02*
X9350Y7500D01*
X9350Y48760D02*
X9350Y125160D01*
X35500Y145000D02*
X61650Y145000D01*
D11*
X102600Y40580D02*
X102600Y30420D01*
X127500Y40000D02*
X127500Y44400D01*
X127500Y40000D02*
X131900Y40000D01*
X127500Y106600D02*
X127500Y111000D01*
X131900Y111000D01*
X198500Y111000D02*
X198500Y106600D01*
X198500Y111000D02*
X194100Y111000D01*
X198500Y44400D02*
X198500Y40000D01*
X194100Y40000D01*
D10*
X120000Y47500D02*
X120002Y47563D01*
X120008Y47625D01*
X120018Y47687D01*
X120031Y47749D01*
X120049Y47809D01*
X120070Y47868D01*
X120095Y47926D01*
X120124Y47982D01*
X120156Y48036D01*
X120191Y48088D01*
X120229Y48137D01*
X120271Y48185D01*
X120315Y48229D01*
X120363Y48271D01*
X120412Y48309D01*
X120464Y48344D01*
X120518Y48376D01*
X120574Y48405D01*
X120632Y48430D01*
X120691Y48451D01*
X120751Y48469D01*
X120813Y48482D01*
X120875Y48492D01*
X120937Y48498D01*
X121000Y48500D01*
X121063Y48498D01*
X121125Y48492D01*
X121187Y48482D01*
X121249Y48469D01*
X121309Y48451D01*
X121368Y48430D01*
X121426Y48405D01*
X121482Y48376D01*
X121536Y48344D01*
X121588Y48309D01*
X121637Y48271D01*
X121685Y48229D01*
X121729Y48185D01*
X121771Y48137D01*
X121809Y48088D01*
X121844Y48036D01*
X121876Y47982D01*
X121905Y47926D01*
X121930Y47868D01*
X121951Y47809D01*
X121969Y47749D01*
X121982Y47687D01*
X121992Y47625D01*
X121998Y47563D01*
X122000Y47500D01*
X121998Y47437D01*
X121992Y47375D01*
X121982Y47313D01*
X121969Y47251D01*
X121951Y47191D01*
X121930Y47132D01*
X121905Y47074D01*
X121876Y47018D01*
X121844Y46964D01*
X121809Y46912D01*
X121771Y46863D01*
X121729Y46815D01*
X121685Y46771D01*
X121637Y46729D01*
X121588Y46691D01*
X121536Y46656D01*
X121482Y46624D01*
X121426Y46595D01*
X121368Y46570D01*
X121309Y46549D01*
X121249Y46531D01*
X121187Y46518D01*
X121125Y46508D01*
X121063Y46502D01*
X121000Y46500D01*
X120937Y46502D01*
X120875Y46508D01*
X120813Y46518D01*
X120751Y46531D01*
X120691Y46549D01*
X120632Y46570D01*
X120574Y46595D01*
X120518Y46624D01*
X120464Y46656D01*
X120412Y46691D01*
X120363Y46729D01*
X120315Y46771D01*
X120271Y46815D01*
X120229Y46863D01*
X120191Y46912D01*
X120156Y46964D01*
X120124Y47018D01*
X120095Y47074D01*
X120070Y47132D01*
X120049Y47191D01*
X120031Y47251D01*
X120018Y47313D01*
X120008Y47375D01*
X120002Y47437D01*
X120000Y47500D01*
D11*
X708350Y28280D02*
X740350Y28280D01*
X740350Y56280D02*
X708350Y56280D01*
X708350Y43780D02*
X708350Y41280D01*
X740350Y40780D02*
X740350Y43780D01*
X740350Y55780D02*
X740350Y56280D01*
X740350Y28780D02*
X740350Y28280D01*
X708350Y55780D02*
X708350Y56280D01*
X708350Y28780D02*
X708350Y28280D01*
X718760Y42280D02*
X718762Y42429D01*
X718768Y42579D01*
X718778Y42728D01*
X718792Y42877D01*
X718810Y43025D01*
X718832Y43173D01*
X718858Y43320D01*
X718887Y43467D01*
X718921Y43612D01*
X718959Y43757D01*
X719000Y43900D01*
X719045Y44043D01*
X719094Y44184D01*
X719147Y44324D01*
X719204Y44462D01*
X719264Y44599D01*
X719328Y44734D01*
X719395Y44868D01*
X719466Y44999D01*
X719540Y45129D01*
X719618Y45256D01*
X719699Y45382D01*
X719784Y45505D01*
X719872Y45626D01*
X719963Y45744D01*
X720057Y45860D01*
X720154Y45974D01*
X720255Y46085D01*
X720358Y46193D01*
X720464Y46298D01*
X720573Y46401D01*
X720684Y46500D01*
X720798Y46597D01*
X720915Y46690D01*
X721034Y46780D01*
X721156Y46867D01*
X721279Y46951D01*
X721405Y47032D01*
X721533Y47109D01*
X721664Y47182D01*
X721796Y47252D01*
X721929Y47319D01*
X722065Y47382D01*
X722202Y47441D01*
X722341Y47496D01*
X722481Y47548D01*
X722623Y47596D01*
X722765Y47641D01*
X722909Y47681D01*
X723054Y47718D01*
X723200Y47750D01*
X723347Y47779D01*
X723494Y47804D01*
X723642Y47825D01*
X723790Y47842D01*
X723939Y47855D01*
X724089Y47864D01*
X724238Y47869D01*
X724387Y47870D01*
X724537Y47867D01*
X724686Y47860D01*
X724835Y47849D01*
X724984Y47834D01*
X725132Y47815D01*
X725280Y47792D01*
X725427Y47765D01*
X725573Y47735D01*
X725718Y47700D01*
X725863Y47661D01*
X726006Y47619D01*
X726148Y47573D01*
X726289Y47523D01*
X726429Y47469D01*
X726567Y47412D01*
X726703Y47351D01*
X726838Y47286D01*
X726971Y47218D01*
X727102Y47146D01*
X727231Y47070D01*
X727358Y46992D01*
X727483Y46910D01*
X727605Y46824D01*
X727726Y46736D01*
X727844Y46644D01*
X727959Y46549D01*
X728072Y46451D01*
X728182Y46350D01*
X728289Y46246D01*
X728394Y46139D01*
X728496Y46030D01*
X728595Y45918D01*
X728690Y45803D01*
X728783Y45685D01*
X728872Y45566D01*
X728959Y45444D01*
X729042Y45319D01*
X729121Y45193D01*
X729197Y45064D01*
X729270Y44934D01*
X729339Y44801D01*
X729405Y44667D01*
X729467Y44531D01*
X729525Y44393D01*
X729580Y44254D01*
X729631Y44114D01*
X729678Y43972D01*
X729721Y43829D01*
X729761Y43685D01*
X729796Y43539D01*
X729828Y43393D01*
X729856Y43247D01*
X729880Y43099D01*
X729900Y42951D01*
X729916Y42802D01*
X729928Y42653D01*
X729936Y42504D01*
X729940Y42355D01*
X729940Y42205D01*
X729936Y42056D01*
X729928Y41907D01*
X729916Y41758D01*
X729900Y41609D01*
X729880Y41461D01*
X729856Y41313D01*
X729828Y41167D01*
X729796Y41021D01*
X729761Y40875D01*
X729721Y40731D01*
X729678Y40588D01*
X729631Y40446D01*
X729580Y40306D01*
X729525Y40167D01*
X729467Y40029D01*
X729405Y39893D01*
X729339Y39759D01*
X729270Y39626D01*
X729197Y39496D01*
X729121Y39367D01*
X729042Y39241D01*
X728959Y39116D01*
X728872Y38994D01*
X728783Y38875D01*
X728690Y38757D01*
X728595Y38642D01*
X728496Y38530D01*
X728394Y38421D01*
X728289Y38314D01*
X728182Y38210D01*
X728072Y38109D01*
X727959Y38011D01*
X727844Y37916D01*
X727726Y37824D01*
X727605Y37736D01*
X727483Y37650D01*
X727358Y37568D01*
X727231Y37490D01*
X727102Y37414D01*
X726971Y37342D01*
X726838Y37274D01*
X726703Y37209D01*
X726567Y37148D01*
X726429Y37091D01*
X726289Y37037D01*
X726148Y36987D01*
X726006Y36941D01*
X725863Y36899D01*
X725718Y36860D01*
X725573Y36825D01*
X725427Y36795D01*
X725280Y36768D01*
X725132Y36745D01*
X724984Y36726D01*
X724835Y36711D01*
X724686Y36700D01*
X724537Y36693D01*
X724387Y36690D01*
X724238Y36691D01*
X724089Y36696D01*
X723939Y36705D01*
X723790Y36718D01*
X723642Y36735D01*
X723494Y36756D01*
X723347Y36781D01*
X723200Y36810D01*
X723054Y36842D01*
X722909Y36879D01*
X722765Y36919D01*
X722623Y36964D01*
X722481Y37012D01*
X722341Y37064D01*
X722202Y37119D01*
X722065Y37178D01*
X721929Y37241D01*
X721796Y37308D01*
X721664Y37378D01*
X721533Y37451D01*
X721405Y37528D01*
X721279Y37609D01*
X721156Y37693D01*
X721034Y37780D01*
X720915Y37870D01*
X720798Y37963D01*
X720684Y38060D01*
X720573Y38159D01*
X720464Y38262D01*
X720358Y38367D01*
X720255Y38475D01*
X720154Y38586D01*
X720057Y38700D01*
X719963Y38816D01*
X719872Y38934D01*
X719784Y39055D01*
X719699Y39178D01*
X719618Y39304D01*
X719540Y39431D01*
X719466Y39561D01*
X719395Y39692D01*
X719328Y39826D01*
X719264Y39961D01*
X719204Y40098D01*
X719147Y40236D01*
X719094Y40376D01*
X719045Y40517D01*
X719000Y40660D01*
X718959Y40803D01*
X718921Y40948D01*
X718887Y41093D01*
X718858Y41240D01*
X718832Y41387D01*
X718810Y41535D01*
X718792Y41683D01*
X718778Y41832D01*
X718768Y41981D01*
X718762Y42131D01*
X718760Y42280D01*
D10*
X178950Y253500D02*
X178952Y253563D01*
X178958Y253625D01*
X178968Y253687D01*
X178981Y253749D01*
X178999Y253809D01*
X179020Y253868D01*
X179045Y253926D01*
X179074Y253982D01*
X179106Y254036D01*
X179141Y254088D01*
X179179Y254137D01*
X179221Y254185D01*
X179265Y254229D01*
X179313Y254271D01*
X179362Y254309D01*
X179414Y254344D01*
X179468Y254376D01*
X179524Y254405D01*
X179582Y254430D01*
X179641Y254451D01*
X179701Y254469D01*
X179763Y254482D01*
X179825Y254492D01*
X179887Y254498D01*
X179950Y254500D01*
X180013Y254498D01*
X180075Y254492D01*
X180137Y254482D01*
X180199Y254469D01*
X180259Y254451D01*
X180318Y254430D01*
X180376Y254405D01*
X180432Y254376D01*
X180486Y254344D01*
X180538Y254309D01*
X180587Y254271D01*
X180635Y254229D01*
X180679Y254185D01*
X180721Y254137D01*
X180759Y254088D01*
X180794Y254036D01*
X180826Y253982D01*
X180855Y253926D01*
X180880Y253868D01*
X180901Y253809D01*
X180919Y253749D01*
X180932Y253687D01*
X180942Y253625D01*
X180948Y253563D01*
X180950Y253500D01*
X180948Y253437D01*
X180942Y253375D01*
X180932Y253313D01*
X180919Y253251D01*
X180901Y253191D01*
X180880Y253132D01*
X180855Y253074D01*
X180826Y253018D01*
X180794Y252964D01*
X180759Y252912D01*
X180721Y252863D01*
X180679Y252815D01*
X180635Y252771D01*
X180587Y252729D01*
X180538Y252691D01*
X180486Y252656D01*
X180432Y252624D01*
X180376Y252595D01*
X180318Y252570D01*
X180259Y252549D01*
X180199Y252531D01*
X180137Y252518D01*
X180075Y252508D01*
X180013Y252502D01*
X179950Y252500D01*
X179887Y252502D01*
X179825Y252508D01*
X179763Y252518D01*
X179701Y252531D01*
X179641Y252549D01*
X179582Y252570D01*
X179524Y252595D01*
X179468Y252624D01*
X179414Y252656D01*
X179362Y252691D01*
X179313Y252729D01*
X179265Y252771D01*
X179221Y252815D01*
X179179Y252863D01*
X179141Y252912D01*
X179106Y252964D01*
X179074Y253018D01*
X179045Y253074D01*
X179020Y253132D01*
X178999Y253191D01*
X178981Y253251D01*
X178968Y253313D01*
X178958Y253375D01*
X178952Y253437D01*
X178950Y253500D01*
D11*
X133700Y201000D02*
X129500Y201000D01*
X129500Y262000D02*
X133700Y262000D01*
X166300Y201000D02*
X170500Y201000D01*
X170500Y262000D02*
X166300Y262000D01*
X129500Y205200D02*
X129500Y201000D01*
X129500Y257800D02*
X129500Y262000D01*
X170500Y205200D02*
X170500Y201000D01*
X170500Y257800D02*
X170500Y262000D01*
D10*
X96550Y283500D02*
X96552Y283563D01*
X96558Y283625D01*
X96568Y283687D01*
X96581Y283749D01*
X96599Y283809D01*
X96620Y283868D01*
X96645Y283926D01*
X96674Y283982D01*
X96706Y284036D01*
X96741Y284088D01*
X96779Y284137D01*
X96821Y284185D01*
X96865Y284229D01*
X96913Y284271D01*
X96962Y284309D01*
X97014Y284344D01*
X97068Y284376D01*
X97124Y284405D01*
X97182Y284430D01*
X97241Y284451D01*
X97301Y284469D01*
X97363Y284482D01*
X97425Y284492D01*
X97487Y284498D01*
X97550Y284500D01*
X97613Y284498D01*
X97675Y284492D01*
X97737Y284482D01*
X97799Y284469D01*
X97859Y284451D01*
X97918Y284430D01*
X97976Y284405D01*
X98032Y284376D01*
X98086Y284344D01*
X98138Y284309D01*
X98187Y284271D01*
X98235Y284229D01*
X98279Y284185D01*
X98321Y284137D01*
X98359Y284088D01*
X98394Y284036D01*
X98426Y283982D01*
X98455Y283926D01*
X98480Y283868D01*
X98501Y283809D01*
X98519Y283749D01*
X98532Y283687D01*
X98542Y283625D01*
X98548Y283563D01*
X98550Y283500D01*
X98548Y283437D01*
X98542Y283375D01*
X98532Y283313D01*
X98519Y283251D01*
X98501Y283191D01*
X98480Y283132D01*
X98455Y283074D01*
X98426Y283018D01*
X98394Y282964D01*
X98359Y282912D01*
X98321Y282863D01*
X98279Y282815D01*
X98235Y282771D01*
X98187Y282729D01*
X98138Y282691D01*
X98086Y282656D01*
X98032Y282624D01*
X97976Y282595D01*
X97918Y282570D01*
X97859Y282549D01*
X97799Y282531D01*
X97737Y282518D01*
X97675Y282508D01*
X97613Y282502D01*
X97550Y282500D01*
X97487Y282502D01*
X97425Y282508D01*
X97363Y282518D01*
X97301Y282531D01*
X97241Y282549D01*
X97182Y282570D01*
X97124Y282595D01*
X97068Y282624D01*
X97014Y282656D01*
X96962Y282691D01*
X96913Y282729D01*
X96865Y282771D01*
X96821Y282815D01*
X96779Y282863D01*
X96741Y282912D01*
X96706Y282964D01*
X96674Y283018D01*
X96645Y283074D01*
X96620Y283132D01*
X96599Y283191D01*
X96581Y283251D01*
X96568Y283313D01*
X96558Y283375D01*
X96552Y283437D01*
X96550Y283500D01*
D11*
X106500Y279200D02*
X137500Y279200D01*
X137500Y311800D02*
X106500Y311800D01*
D12*
X53000Y277500D02*
X18000Y277500D01*
X18000Y285500D01*
X43000Y285500D01*
X43000Y297500D01*
X43000Y337500D02*
X43000Y349500D01*
X18000Y349500D01*
X18000Y357500D01*
X53000Y357500D01*
X93000Y337500D02*
X93000Y297500D01*
D11*
X62500Y367500D02*
X62500Y381500D01*
X90500Y381500D01*
X90500Y367500D01*
X62500Y367500D01*
X177500Y267500D02*
X191500Y267500D01*
X191500Y239500D01*
X177500Y239500D01*
X177500Y267500D01*
X193000Y210000D02*
X207000Y210000D01*
X193000Y210000D02*
X193000Y238000D01*
X207000Y238000D01*
X207000Y210000D01*
X191500Y210000D02*
X177500Y210000D01*
X177500Y238000D01*
X191500Y238000D01*
X191500Y210000D01*
X15500Y235000D02*
X500Y235000D01*
X500Y265000D01*
X15500Y265000D01*
X15500Y235000D01*
X18000Y265000D02*
X32000Y265000D01*
X32000Y237000D01*
X18000Y237000D01*
X18000Y265000D01*
X88500Y232000D02*
X102500Y232000D01*
X88500Y232000D02*
X88500Y260000D01*
X102500Y260000D01*
X102500Y232000D01*
X104500Y260000D02*
X118500Y260000D01*
X118500Y232000D01*
X104500Y232000D01*
X104500Y260000D01*
X88500Y262000D02*
X88500Y276000D01*
X116500Y276000D01*
X116500Y262000D01*
X88500Y262000D01*
X104500Y230500D02*
X118500Y230500D01*
X118500Y202500D01*
X104500Y202500D01*
X104500Y230500D01*
X102500Y202500D02*
X88500Y202500D01*
X88500Y230500D01*
X102500Y230500D01*
X102500Y202500D01*
X94000Y201000D02*
X94000Y187000D01*
X94000Y201000D02*
X122000Y201000D01*
X122000Y187000D01*
X94000Y187000D01*
X193000Y267500D02*
X207000Y267500D01*
X207000Y239500D01*
X193000Y239500D01*
X193000Y267500D01*
X193000Y208500D02*
X207000Y208500D01*
X207000Y180500D01*
X193000Y180500D01*
X193000Y208500D01*
X178000Y179000D02*
X178000Y165000D01*
X178000Y179000D02*
X206000Y179000D01*
X206000Y165000D01*
X178000Y165000D01*
X177500Y208500D02*
X191500Y208500D01*
X191500Y180500D01*
X177500Y180500D01*
X177500Y208500D01*
X176000Y179000D02*
X176000Y165000D01*
X148000Y165000D01*
X148000Y179000D01*
X176000Y179000D01*
X176000Y180500D02*
X176000Y194500D01*
X176000Y180500D02*
X148000Y180500D01*
X148000Y194500D01*
X176000Y194500D01*
D13*
X210340Y197410D02*
X210340Y240590D01*
X228120Y243130D02*
X228220Y243128D01*
X228319Y243122D01*
X228419Y243112D01*
X228517Y243099D01*
X228616Y243081D01*
X228713Y243060D01*
X228809Y243035D01*
X228905Y243006D01*
X228999Y242973D01*
X229092Y242937D01*
X229183Y242897D01*
X229273Y242853D01*
X229361Y242806D01*
X229447Y242756D01*
X229531Y242702D01*
X229613Y242645D01*
X229692Y242585D01*
X229770Y242521D01*
X229844Y242455D01*
X229916Y242386D01*
X229985Y242314D01*
X230051Y242240D01*
X230115Y242162D01*
X230175Y242083D01*
X230232Y242001D01*
X230286Y241917D01*
X230336Y241831D01*
X230383Y241743D01*
X230427Y241653D01*
X230467Y241562D01*
X230503Y241469D01*
X230536Y241375D01*
X230565Y241279D01*
X230590Y241183D01*
X230611Y241086D01*
X230629Y240987D01*
X230642Y240889D01*
X230652Y240789D01*
X230658Y240690D01*
X230660Y240590D01*
X230660Y197410D02*
X230658Y197310D01*
X230652Y197211D01*
X230642Y197111D01*
X230629Y197013D01*
X230611Y196914D01*
X230590Y196817D01*
X230565Y196721D01*
X230536Y196625D01*
X230503Y196531D01*
X230467Y196438D01*
X230427Y196347D01*
X230383Y196257D01*
X230336Y196169D01*
X230286Y196083D01*
X230232Y195999D01*
X230175Y195917D01*
X230115Y195838D01*
X230051Y195760D01*
X229985Y195686D01*
X229916Y195614D01*
X229844Y195545D01*
X229770Y195479D01*
X229692Y195415D01*
X229613Y195355D01*
X229531Y195298D01*
X229447Y195244D01*
X229361Y195194D01*
X229273Y195147D01*
X229183Y195103D01*
X229092Y195063D01*
X228999Y195027D01*
X228905Y194994D01*
X228809Y194965D01*
X228713Y194940D01*
X228616Y194919D01*
X228517Y194901D01*
X228419Y194888D01*
X228319Y194878D01*
X228220Y194872D01*
X228120Y194870D01*
X212880Y194870D02*
X212780Y194872D01*
X212681Y194878D01*
X212581Y194888D01*
X212483Y194901D01*
X212384Y194919D01*
X212287Y194940D01*
X212191Y194965D01*
X212095Y194994D01*
X212001Y195027D01*
X211908Y195063D01*
X211817Y195103D01*
X211727Y195147D01*
X211639Y195194D01*
X211553Y195244D01*
X211469Y195298D01*
X211387Y195355D01*
X211308Y195415D01*
X211230Y195479D01*
X211156Y195545D01*
X211084Y195614D01*
X211015Y195686D01*
X210949Y195760D01*
X210885Y195838D01*
X210825Y195917D01*
X210768Y195999D01*
X210714Y196083D01*
X210664Y196169D01*
X210617Y196257D01*
X210573Y196347D01*
X210533Y196438D01*
X210497Y196531D01*
X210464Y196625D01*
X210435Y196721D01*
X210410Y196817D01*
X210389Y196914D01*
X210371Y197013D01*
X210358Y197111D01*
X210348Y197211D01*
X210342Y197310D01*
X210340Y197410D01*
X210340Y240590D02*
X210342Y240690D01*
X210348Y240789D01*
X210358Y240889D01*
X210371Y240987D01*
X210389Y241086D01*
X210410Y241183D01*
X210435Y241279D01*
X210464Y241375D01*
X210497Y241469D01*
X210533Y241562D01*
X210573Y241653D01*
X210617Y241743D01*
X210664Y241831D01*
X210714Y241917D01*
X210768Y242001D01*
X210825Y242083D01*
X210885Y242162D01*
X210949Y242240D01*
X211015Y242314D01*
X211084Y242386D01*
X211156Y242455D01*
X211230Y242521D01*
X211308Y242585D01*
X211387Y242645D01*
X211469Y242702D01*
X211553Y242756D01*
X211639Y242806D01*
X211727Y242853D01*
X211817Y242897D01*
X211908Y242937D01*
X212001Y242973D01*
X212095Y243006D01*
X212191Y243035D01*
X212287Y243060D01*
X212384Y243081D01*
X212483Y243099D01*
X212581Y243112D01*
X212681Y243122D01*
X212780Y243128D01*
X212880Y243130D01*
X228120Y243130D01*
X228120Y194870D02*
X212880Y194870D01*
X230660Y197410D02*
X230660Y240590D01*
D14*
X233454Y196987D02*
X239042Y195124D01*
X239042Y198849D02*
X233454Y196987D01*
X233454Y201140D02*
X239042Y201140D01*
X239042Y202692D01*
X239040Y202769D01*
X239034Y202847D01*
X239025Y202923D01*
X239011Y203000D01*
X238994Y203075D01*
X238973Y203149D01*
X238948Y203223D01*
X238920Y203295D01*
X238888Y203365D01*
X238853Y203434D01*
X238814Y203501D01*
X238772Y203566D01*
X238727Y203629D01*
X238679Y203690D01*
X238628Y203748D01*
X238574Y203803D01*
X238517Y203856D01*
X238458Y203905D01*
X238396Y203952D01*
X238332Y203996D01*
X238266Y204036D01*
X238198Y204073D01*
X238128Y204107D01*
X238057Y204137D01*
X237984Y204163D01*
X237910Y204186D01*
X237835Y204205D01*
X237760Y204220D01*
X237683Y204232D01*
X237606Y204240D01*
X237529Y204244D01*
X237451Y204244D01*
X237374Y204240D01*
X237297Y204232D01*
X237220Y204220D01*
X237145Y204205D01*
X237070Y204186D01*
X236996Y204163D01*
X236923Y204137D01*
X236852Y204107D01*
X236782Y204073D01*
X236714Y204036D01*
X236648Y203996D01*
X236584Y203952D01*
X236522Y203905D01*
X236463Y203856D01*
X236406Y203803D01*
X236352Y203748D01*
X236301Y203690D01*
X236253Y203629D01*
X236208Y203566D01*
X236166Y203501D01*
X236127Y203434D01*
X236092Y203365D01*
X236060Y203295D01*
X236032Y203223D01*
X236007Y203149D01*
X235986Y203075D01*
X235969Y203000D01*
X235955Y202923D01*
X235946Y202847D01*
X235940Y202769D01*
X235938Y202692D01*
X235938Y201140D01*
X235938Y203002D02*
X233454Y204244D01*
X233454Y206784D02*
X233454Y209268D01*
X233454Y206784D02*
X239042Y206784D01*
X239042Y209268D01*
X236558Y208647D02*
X236558Y206784D01*
X236558Y213701D02*
X236558Y214632D01*
X233454Y214632D01*
X233454Y212770D01*
X233456Y212700D01*
X233462Y212631D01*
X233472Y212562D01*
X233485Y212494D01*
X233503Y212426D01*
X233524Y212360D01*
X233549Y212295D01*
X233577Y212231D01*
X233609Y212169D01*
X233644Y212109D01*
X233683Y212051D01*
X233725Y211996D01*
X233770Y211942D01*
X233818Y211892D01*
X233868Y211844D01*
X233922Y211799D01*
X233977Y211757D01*
X234035Y211718D01*
X234095Y211683D01*
X234157Y211651D01*
X234221Y211623D01*
X234286Y211598D01*
X234352Y211577D01*
X234420Y211559D01*
X234488Y211546D01*
X234557Y211536D01*
X234626Y211530D01*
X234696Y211528D01*
X237800Y211528D01*
X237870Y211530D01*
X237939Y211536D01*
X238008Y211546D01*
X238076Y211559D01*
X238144Y211577D01*
X238210Y211598D01*
X238275Y211623D01*
X238339Y211651D01*
X238401Y211683D01*
X238461Y211718D01*
X238519Y211757D01*
X238574Y211799D01*
X238628Y211844D01*
X238678Y211892D01*
X238726Y211942D01*
X238771Y211996D01*
X238813Y212051D01*
X238852Y212109D01*
X238887Y212169D01*
X238919Y212231D01*
X238947Y212295D01*
X238972Y212360D01*
X238993Y212426D01*
X239011Y212494D01*
X239024Y212562D01*
X239034Y212631D01*
X239040Y212700D01*
X239042Y212770D01*
X239042Y214632D01*
X232833Y216959D02*
X232833Y219442D01*
X233454Y221824D02*
X239042Y221824D01*
X235938Y223687D01*
X239042Y225550D01*
X233454Y225550D01*
X235006Y228170D02*
X237490Y228170D01*
X237567Y228172D01*
X237645Y228178D01*
X237721Y228187D01*
X237798Y228201D01*
X237873Y228218D01*
X237947Y228239D01*
X238021Y228264D01*
X238093Y228292D01*
X238163Y228324D01*
X238232Y228359D01*
X238299Y228398D01*
X238364Y228440D01*
X238427Y228485D01*
X238488Y228533D01*
X238546Y228584D01*
X238601Y228638D01*
X238654Y228695D01*
X238703Y228754D01*
X238750Y228816D01*
X238794Y228880D01*
X238834Y228946D01*
X238871Y229014D01*
X238905Y229084D01*
X238935Y229155D01*
X238961Y229228D01*
X238984Y229302D01*
X239003Y229377D01*
X239018Y229452D01*
X239030Y229529D01*
X239038Y229606D01*
X239042Y229683D01*
X239042Y229761D01*
X239038Y229838D01*
X239030Y229915D01*
X239018Y229992D01*
X239003Y230067D01*
X238984Y230142D01*
X238961Y230216D01*
X238935Y230289D01*
X238905Y230360D01*
X238871Y230430D01*
X238834Y230498D01*
X238794Y230564D01*
X238750Y230628D01*
X238703Y230690D01*
X238654Y230749D01*
X238601Y230806D01*
X238546Y230860D01*
X238488Y230911D01*
X238427Y230959D01*
X238364Y231004D01*
X238299Y231046D01*
X238232Y231085D01*
X238163Y231120D01*
X238093Y231152D01*
X238021Y231180D01*
X237947Y231205D01*
X237873Y231226D01*
X237798Y231243D01*
X237721Y231257D01*
X237645Y231266D01*
X237567Y231272D01*
X237490Y231274D01*
X235006Y231274D01*
X234929Y231272D01*
X234851Y231266D01*
X234775Y231257D01*
X234698Y231243D01*
X234623Y231226D01*
X234549Y231205D01*
X234475Y231180D01*
X234403Y231152D01*
X234333Y231120D01*
X234264Y231085D01*
X234197Y231046D01*
X234132Y231004D01*
X234069Y230959D01*
X234008Y230911D01*
X233950Y230860D01*
X233895Y230806D01*
X233842Y230749D01*
X233793Y230690D01*
X233746Y230628D01*
X233702Y230564D01*
X233662Y230498D01*
X233625Y230430D01*
X233591Y230360D01*
X233561Y230289D01*
X233535Y230216D01*
X233512Y230142D01*
X233493Y230067D01*
X233478Y229992D01*
X233466Y229915D01*
X233458Y229838D01*
X233454Y229761D01*
X233454Y229683D01*
X233458Y229606D01*
X233466Y229529D01*
X233478Y229452D01*
X233493Y229377D01*
X233512Y229302D01*
X233535Y229228D01*
X233561Y229155D01*
X233591Y229084D01*
X233625Y229014D01*
X233662Y228946D01*
X233702Y228880D01*
X233746Y228816D01*
X233793Y228754D01*
X233842Y228695D01*
X233895Y228638D01*
X233950Y228584D01*
X234008Y228533D01*
X234069Y228485D01*
X234132Y228440D01*
X234197Y228398D01*
X234264Y228359D01*
X234333Y228324D01*
X234403Y228292D01*
X234475Y228264D01*
X234549Y228239D01*
X234623Y228218D01*
X234698Y228201D01*
X234775Y228187D01*
X234851Y228178D01*
X234929Y228172D01*
X235006Y228170D01*
X233454Y233839D02*
X239042Y233839D01*
X239042Y235391D01*
X239040Y235467D01*
X239035Y235543D01*
X239025Y235619D01*
X239012Y235694D01*
X238995Y235768D01*
X238975Y235842D01*
X238951Y235914D01*
X238924Y235985D01*
X238893Y236055D01*
X238859Y236123D01*
X238821Y236189D01*
X238780Y236253D01*
X238737Y236316D01*
X238690Y236376D01*
X238640Y236433D01*
X238587Y236488D01*
X238532Y236541D01*
X238475Y236591D01*
X238415Y236638D01*
X238352Y236681D01*
X238288Y236722D01*
X238222Y236760D01*
X238154Y236794D01*
X238084Y236825D01*
X238013Y236852D01*
X237940Y236876D01*
X237867Y236896D01*
X237793Y236913D01*
X237718Y236926D01*
X237642Y236936D01*
X237566Y236941D01*
X237490Y236943D01*
X235006Y236943D01*
X234927Y236941D01*
X234849Y236935D01*
X234771Y236925D01*
X234694Y236911D01*
X234617Y236893D01*
X234541Y236872D01*
X234467Y236846D01*
X234394Y236817D01*
X234323Y236784D01*
X234253Y236748D01*
X234185Y236708D01*
X234119Y236665D01*
X234056Y236618D01*
X233995Y236569D01*
X233937Y236516D01*
X233881Y236460D01*
X233828Y236402D01*
X233779Y236341D01*
X233732Y236278D01*
X233689Y236212D01*
X233649Y236144D01*
X233613Y236075D01*
X233580Y236003D01*
X233551Y235930D01*
X233525Y235856D01*
X233504Y235780D01*
X233486Y235703D01*
X233472Y235626D01*
X233462Y235548D01*
X233456Y235470D01*
X233454Y235391D01*
X233454Y233839D01*
X233454Y239702D02*
X233454Y242186D01*
X233454Y239702D02*
X239042Y239702D01*
X239042Y242186D01*
X236558Y241565D02*
X236558Y239702D01*
D11*
X145500Y163500D02*
X131500Y163500D01*
X131500Y191500D01*
X145500Y191500D01*
X145500Y163500D01*
X94000Y167000D02*
X94000Y181000D01*
X122000Y181000D01*
X122000Y167000D01*
X94000Y167000D01*
D10*
X357500Y380500D02*
X357502Y380563D01*
X357508Y380625D01*
X357518Y380687D01*
X357531Y380749D01*
X357549Y380809D01*
X357570Y380868D01*
X357595Y380926D01*
X357624Y380982D01*
X357656Y381036D01*
X357691Y381088D01*
X357729Y381137D01*
X357771Y381185D01*
X357815Y381229D01*
X357863Y381271D01*
X357912Y381309D01*
X357964Y381344D01*
X358018Y381376D01*
X358074Y381405D01*
X358132Y381430D01*
X358191Y381451D01*
X358251Y381469D01*
X358313Y381482D01*
X358375Y381492D01*
X358437Y381498D01*
X358500Y381500D01*
X358563Y381498D01*
X358625Y381492D01*
X358687Y381482D01*
X358749Y381469D01*
X358809Y381451D01*
X358868Y381430D01*
X358926Y381405D01*
X358982Y381376D01*
X359036Y381344D01*
X359088Y381309D01*
X359137Y381271D01*
X359185Y381229D01*
X359229Y381185D01*
X359271Y381137D01*
X359309Y381088D01*
X359344Y381036D01*
X359376Y380982D01*
X359405Y380926D01*
X359430Y380868D01*
X359451Y380809D01*
X359469Y380749D01*
X359482Y380687D01*
X359492Y380625D01*
X359498Y380563D01*
X359500Y380500D01*
X359498Y380437D01*
X359492Y380375D01*
X359482Y380313D01*
X359469Y380251D01*
X359451Y380191D01*
X359430Y380132D01*
X359405Y380074D01*
X359376Y380018D01*
X359344Y379964D01*
X359309Y379912D01*
X359271Y379863D01*
X359229Y379815D01*
X359185Y379771D01*
X359137Y379729D01*
X359088Y379691D01*
X359036Y379656D01*
X358982Y379624D01*
X358926Y379595D01*
X358868Y379570D01*
X358809Y379549D01*
X358749Y379531D01*
X358687Y379518D01*
X358625Y379508D01*
X358563Y379502D01*
X358500Y379500D01*
X358437Y379502D01*
X358375Y379508D01*
X358313Y379518D01*
X358251Y379531D01*
X358191Y379549D01*
X358132Y379570D01*
X358074Y379595D01*
X358018Y379624D01*
X357964Y379656D01*
X357912Y379691D01*
X357863Y379729D01*
X357815Y379771D01*
X357771Y379815D01*
X357729Y379863D01*
X357691Y379912D01*
X357656Y379964D01*
X357624Y380018D01*
X357595Y380074D01*
X357570Y380132D01*
X357549Y380191D01*
X357531Y380251D01*
X357518Y380313D01*
X357508Y380375D01*
X357502Y380437D01*
X357500Y380500D01*
D11*
X384000Y386000D02*
X407000Y386000D01*
X364500Y394100D02*
X364500Y396000D01*
X426500Y396000D02*
X426500Y394100D01*
D10*
X217500Y380500D02*
X217502Y380563D01*
X217508Y380625D01*
X217518Y380687D01*
X217531Y380749D01*
X217549Y380809D01*
X217570Y380868D01*
X217595Y380926D01*
X217624Y380982D01*
X217656Y381036D01*
X217691Y381088D01*
X217729Y381137D01*
X217771Y381185D01*
X217815Y381229D01*
X217863Y381271D01*
X217912Y381309D01*
X217964Y381344D01*
X218018Y381376D01*
X218074Y381405D01*
X218132Y381430D01*
X218191Y381451D01*
X218251Y381469D01*
X218313Y381482D01*
X218375Y381492D01*
X218437Y381498D01*
X218500Y381500D01*
X218563Y381498D01*
X218625Y381492D01*
X218687Y381482D01*
X218749Y381469D01*
X218809Y381451D01*
X218868Y381430D01*
X218926Y381405D01*
X218982Y381376D01*
X219036Y381344D01*
X219088Y381309D01*
X219137Y381271D01*
X219185Y381229D01*
X219229Y381185D01*
X219271Y381137D01*
X219309Y381088D01*
X219344Y381036D01*
X219376Y380982D01*
X219405Y380926D01*
X219430Y380868D01*
X219451Y380809D01*
X219469Y380749D01*
X219482Y380687D01*
X219492Y380625D01*
X219498Y380563D01*
X219500Y380500D01*
X219498Y380437D01*
X219492Y380375D01*
X219482Y380313D01*
X219469Y380251D01*
X219451Y380191D01*
X219430Y380132D01*
X219405Y380074D01*
X219376Y380018D01*
X219344Y379964D01*
X219309Y379912D01*
X219271Y379863D01*
X219229Y379815D01*
X219185Y379771D01*
X219137Y379729D01*
X219088Y379691D01*
X219036Y379656D01*
X218982Y379624D01*
X218926Y379595D01*
X218868Y379570D01*
X218809Y379549D01*
X218749Y379531D01*
X218687Y379518D01*
X218625Y379508D01*
X218563Y379502D01*
X218500Y379500D01*
X218437Y379502D01*
X218375Y379508D01*
X218313Y379518D01*
X218251Y379531D01*
X218191Y379549D01*
X218132Y379570D01*
X218074Y379595D01*
X218018Y379624D01*
X217964Y379656D01*
X217912Y379691D01*
X217863Y379729D01*
X217815Y379771D01*
X217771Y379815D01*
X217729Y379863D01*
X217691Y379912D01*
X217656Y379964D01*
X217624Y380018D01*
X217595Y380074D01*
X217570Y380132D01*
X217549Y380191D01*
X217531Y380251D01*
X217518Y380313D01*
X217508Y380375D01*
X217502Y380437D01*
X217500Y380500D01*
D11*
X244000Y386000D02*
X267000Y386000D01*
X224500Y394100D02*
X224500Y396000D01*
X286500Y396000D02*
X286500Y394100D01*
D10*
X499000Y380500D02*
X499002Y380563D01*
X499008Y380625D01*
X499018Y380687D01*
X499031Y380749D01*
X499049Y380809D01*
X499070Y380868D01*
X499095Y380926D01*
X499124Y380982D01*
X499156Y381036D01*
X499191Y381088D01*
X499229Y381137D01*
X499271Y381185D01*
X499315Y381229D01*
X499363Y381271D01*
X499412Y381309D01*
X499464Y381344D01*
X499518Y381376D01*
X499574Y381405D01*
X499632Y381430D01*
X499691Y381451D01*
X499751Y381469D01*
X499813Y381482D01*
X499875Y381492D01*
X499937Y381498D01*
X500000Y381500D01*
X500063Y381498D01*
X500125Y381492D01*
X500187Y381482D01*
X500249Y381469D01*
X500309Y381451D01*
X500368Y381430D01*
X500426Y381405D01*
X500482Y381376D01*
X500536Y381344D01*
X500588Y381309D01*
X500637Y381271D01*
X500685Y381229D01*
X500729Y381185D01*
X500771Y381137D01*
X500809Y381088D01*
X500844Y381036D01*
X500876Y380982D01*
X500905Y380926D01*
X500930Y380868D01*
X500951Y380809D01*
X500969Y380749D01*
X500982Y380687D01*
X500992Y380625D01*
X500998Y380563D01*
X501000Y380500D01*
X500998Y380437D01*
X500992Y380375D01*
X500982Y380313D01*
X500969Y380251D01*
X500951Y380191D01*
X500930Y380132D01*
X500905Y380074D01*
X500876Y380018D01*
X500844Y379964D01*
X500809Y379912D01*
X500771Y379863D01*
X500729Y379815D01*
X500685Y379771D01*
X500637Y379729D01*
X500588Y379691D01*
X500536Y379656D01*
X500482Y379624D01*
X500426Y379595D01*
X500368Y379570D01*
X500309Y379549D01*
X500249Y379531D01*
X500187Y379518D01*
X500125Y379508D01*
X500063Y379502D01*
X500000Y379500D01*
X499937Y379502D01*
X499875Y379508D01*
X499813Y379518D01*
X499751Y379531D01*
X499691Y379549D01*
X499632Y379570D01*
X499574Y379595D01*
X499518Y379624D01*
X499464Y379656D01*
X499412Y379691D01*
X499363Y379729D01*
X499315Y379771D01*
X499271Y379815D01*
X499229Y379863D01*
X499191Y379912D01*
X499156Y379964D01*
X499124Y380018D01*
X499095Y380074D01*
X499070Y380132D01*
X499049Y380191D01*
X499031Y380251D01*
X499018Y380313D01*
X499008Y380375D01*
X499002Y380437D01*
X499000Y380500D01*
D11*
X525500Y386000D02*
X548500Y386000D01*
X506000Y394100D02*
X506000Y396000D01*
X568000Y396000D02*
X568000Y394100D01*
D10*
X573000Y31000D02*
X573002Y31063D01*
X573008Y31125D01*
X573018Y31187D01*
X573031Y31249D01*
X573049Y31309D01*
X573070Y31368D01*
X573095Y31426D01*
X573124Y31482D01*
X573156Y31536D01*
X573191Y31588D01*
X573229Y31637D01*
X573271Y31685D01*
X573315Y31729D01*
X573363Y31771D01*
X573412Y31809D01*
X573464Y31844D01*
X573518Y31876D01*
X573574Y31905D01*
X573632Y31930D01*
X573691Y31951D01*
X573751Y31969D01*
X573813Y31982D01*
X573875Y31992D01*
X573937Y31998D01*
X574000Y32000D01*
X574063Y31998D01*
X574125Y31992D01*
X574187Y31982D01*
X574249Y31969D01*
X574309Y31951D01*
X574368Y31930D01*
X574426Y31905D01*
X574482Y31876D01*
X574536Y31844D01*
X574588Y31809D01*
X574637Y31771D01*
X574685Y31729D01*
X574729Y31685D01*
X574771Y31637D01*
X574809Y31588D01*
X574844Y31536D01*
X574876Y31482D01*
X574905Y31426D01*
X574930Y31368D01*
X574951Y31309D01*
X574969Y31249D01*
X574982Y31187D01*
X574992Y31125D01*
X574998Y31063D01*
X575000Y31000D01*
X574998Y30937D01*
X574992Y30875D01*
X574982Y30813D01*
X574969Y30751D01*
X574951Y30691D01*
X574930Y30632D01*
X574905Y30574D01*
X574876Y30518D01*
X574844Y30464D01*
X574809Y30412D01*
X574771Y30363D01*
X574729Y30315D01*
X574685Y30271D01*
X574637Y30229D01*
X574588Y30191D01*
X574536Y30156D01*
X574482Y30124D01*
X574426Y30095D01*
X574368Y30070D01*
X574309Y30049D01*
X574249Y30031D01*
X574187Y30018D01*
X574125Y30008D01*
X574063Y30002D01*
X574000Y30000D01*
X573937Y30002D01*
X573875Y30008D01*
X573813Y30018D01*
X573751Y30031D01*
X573691Y30049D01*
X573632Y30070D01*
X573574Y30095D01*
X573518Y30124D01*
X573464Y30156D01*
X573412Y30191D01*
X573363Y30229D01*
X573315Y30271D01*
X573271Y30315D01*
X573229Y30363D01*
X573191Y30412D01*
X573156Y30464D01*
X573124Y30518D01*
X573095Y30574D01*
X573070Y30632D01*
X573049Y30691D01*
X573031Y30751D01*
X573018Y30813D01*
X573008Y30875D01*
X573002Y30937D01*
X573000Y31000D01*
D11*
X548500Y25500D02*
X525500Y25500D01*
X568000Y17400D02*
X568000Y15500D01*
X506000Y15500D02*
X506000Y17400D01*
M02*
