M48
;GenerationSoftware,Autodesk,EAGLE,9.5.1*%
;CreationDate,2020-03-05T01:29:15Z*%
FMAT,2
ICI,OFF
METRIC,TZ,000.000
T4C0.254
T3C0.350
T2C1.016
T1C2.000
%
G90
M71
T1
X73500Y38650
X73500Y1650
X1500Y39650
X1500Y17150
T2
X32550Y1554
X71100Y39600
X68560Y39854
X66020Y39600
X63480Y39854
X60940Y39600
X58400Y39854
X43950Y39777
X46490Y39523
X49030Y39777
X29900Y39777
X32440Y39523
X34980Y39777
X5950Y39650
X8500Y39650
X45250Y1300
X42710Y1554
X40170Y1300
X37630Y1554
X35090Y1300
T3
X21000Y19150
X8650Y20050
X11970Y20180
X16000Y21300
X16000Y23990
X20525Y25754
X25000Y37650
X53800Y38700
X52650Y36042
X4000Y1150
X14550Y3200
X13950Y5150
X27376Y3826
X28500Y950
X21000Y6150
X18756Y6150
X41050Y21150
X47300Y20150
X50525Y2675
X66300Y25450
X69300Y25450
X73300Y25450
X71350Y14850
X72300Y14850
X73300Y14850
X65300Y14850
X60350Y18150
X60400Y22150
X51000Y20150
X51250Y4850
X59150Y27550
X61650Y36700
X53050Y27550
X63250Y35850
X63300Y31600
X64700Y31650
X68700Y35900
X51250Y10850
X51250Y31850
X46250Y28850
X45250Y24850
X41450Y11950
X24700Y7700
X34250Y32850
X29250Y24600
X25200Y28750
X21900Y5300
X9250Y1850
X2250Y20850
X2450Y37350
X18950Y39200
X29250Y28750
X47200Y6600
X28150Y7650
X35100Y13050
X38250Y22650
X36900Y24600
X61750Y31000
X24100Y31150
X25000Y33750
X26055Y37205
X33700Y3800
X35700Y7250
X36850Y3800
X39050Y3800
X41250Y3800
X29000Y17300
X33950Y11000
X28050Y11150
X26850Y11150
X26800Y12750
X36750Y16400
X15350Y37850
X13600Y33400
X15500Y34400
X21250Y3000
X21950Y1450
X42600Y20300
X21600Y7150
X42350Y18250
X39200Y18600
X5950Y14500
X44381Y20119
X43950Y3900
X45550Y3900
X35600Y36000
X37000Y36000
X42550Y36350
X20400Y36367
X16300Y7550
X17055Y3317
X22900Y31850
X25215Y10300
X17550Y3832
X21600Y31300
X24500Y10300
X26750Y33400
X11400Y13150
X26950Y15950
X26050Y33400
X19700Y12150
X25950Y10300
X13600Y34200
X17236Y33740
X15800Y27400
X11300Y32900
X11200Y35750
X5700Y36300
X6950Y6800
X19700Y700
X6700Y7900
X19100Y1100
X7000Y10150
X19721Y1460
X6750Y12150
X18375Y2275
X10050Y20150
X8850Y8950
X17995Y3317
X21055Y2150
X20805Y681
X24823Y19600
X23304Y26854
X16650Y2750
X22050Y2750
X24200Y25250
X21775Y27675
X17904Y12493
X35517Y11000
X36830Y6900
X17152Y13163
X34800Y11000
X35000Y6350
X18586Y12514
X36084Y10500
X37800Y6800
X13302Y12967
X32450Y14150
X13003Y13647
X38250Y15466
X38500Y6921
X17226Y12424
X29500Y11500
X31600Y4600
X46721Y3378
X14236Y13400
X27950Y12500
X32071Y3414
X46900Y1150
X14032Y12750
X27950Y13300
X32056Y4094
X47000Y2150
X20975Y10725
X49000Y27150
X48800Y13248
X22300Y6550
X49406Y26550
X49454Y12600
X11000Y26150
X11000Y27150
X10900Y31700
X53000Y35150
X24950Y35600
X33300Y35400
X48200Y14750
X48250Y5000
X8646Y23950
X18100Y24000
X22165Y24100
X15600Y19654
X12000Y21350
X12050Y22400
X12100Y23800
X17700Y25250
X14004Y17450
X22450Y24919
X37981Y25019
X39450Y6950
X39900Y14750
X16650Y27450
X16669Y20331
X13350Y19500
X8400Y23300
X10800Y23850
X10750Y22400
X8400Y22200
X20850Y22700
X13300Y27700
X14900Y30100
X25212Y20876
X23794Y10256
X37000Y21256
X35079Y19276
X19250Y21650
X19250Y20200
X17742Y18000
X12134Y6778
X28150Y4550
X27900Y17350
X54900Y2923
X12572Y7302
X34600Y16400
X14450Y27500
X33179Y16200
X25607Y36607
X23250Y37700
X12508Y8333
X33900Y16200
X23508Y14601
X22558Y14650
X12050Y13450
X20400Y17050
X12550Y6100
X12564Y4700
X19065Y3700
X20525Y10175
X16550Y11295
X16045Y3150
X11375Y12425
X12250Y16700
X10800Y15200
X41600Y10300
X70000Y2150
X30975Y31375
X39800Y24500
X33950Y36650
X40507Y16800
X9000Y35150
X9000Y29150
X9500Y26100
X13950Y21150
X14000Y23150
X14000Y24150
X15000Y25050
X12054Y7825
T4
X10050Y30350
X12929Y30700
X14400Y29500
M30