G04 EAGLE Gerber RS-274X export*
G75*
%MOMM*%
%FSLAX34Y34*%
%LPD*%
%IN*%
%IPPOS*%
%AMOC8*
5,1,8,0,0,1.08239X$1,22.5*%
G01*
%ADD10C,0.000000*%
%ADD11C,0.254000*%


D10*
X416100Y395000D02*
X374900Y395000D01*
X370000Y400000D02*
X370000Y411500D01*
X421000Y411500D02*
X421000Y400000D01*
X370000Y411500D02*
X364500Y411500D01*
X421000Y411500D02*
X426500Y411500D01*
X374900Y395000D02*
X374815Y394920D01*
X374727Y394842D01*
X374637Y394768D01*
X374545Y394696D01*
X374450Y394628D01*
X374353Y394562D01*
X374254Y394500D01*
X374152Y394442D01*
X374049Y394387D01*
X373944Y394335D01*
X373838Y394287D01*
X373729Y394242D01*
X373620Y394201D01*
X373509Y394164D01*
X373397Y394131D01*
X373284Y394101D01*
X373170Y394075D01*
X373055Y394053D01*
X372939Y394034D01*
X372823Y394020D01*
X372707Y394009D01*
X372590Y394003D01*
X372473Y394000D01*
X372356Y394001D01*
X372239Y394006D01*
X372123Y394015D01*
X372006Y394028D01*
X371891Y394045D01*
X371776Y394066D01*
X371661Y394090D01*
X371548Y394118D01*
X371435Y394150D01*
X371324Y394186D01*
X371214Y394226D01*
X371105Y394269D01*
X370998Y394316D01*
X370892Y394366D01*
X370788Y394420D01*
X370686Y394477D01*
X370586Y394537D01*
X370488Y394601D01*
X370393Y394669D01*
X370299Y394739D01*
X370208Y394812D01*
X370119Y394889D01*
X370034Y394968D01*
X369950Y395050D01*
X369870Y395135D01*
X369792Y395223D01*
X369718Y395313D01*
X369646Y395405D01*
X369578Y395500D01*
X369512Y395597D01*
X369450Y395696D01*
X369392Y395798D01*
X369337Y395901D01*
X369285Y396006D01*
X369237Y396112D01*
X369192Y396221D01*
X369151Y396330D01*
X369114Y396441D01*
X369081Y396553D01*
X369051Y396666D01*
X369025Y396780D01*
X369003Y396895D01*
X368984Y397011D01*
X368970Y397127D01*
X368959Y397243D01*
X368953Y397360D01*
X368950Y397477D01*
X368951Y397594D01*
X368956Y397711D01*
X368965Y397827D01*
X368978Y397944D01*
X368995Y398059D01*
X369016Y398174D01*
X369040Y398289D01*
X369068Y398402D01*
X369100Y398515D01*
X369136Y398626D01*
X369176Y398736D01*
X369219Y398845D01*
X369266Y398952D01*
X369316Y399058D01*
X369370Y399162D01*
X369427Y399264D01*
X369487Y399364D01*
X369551Y399462D01*
X369619Y399557D01*
X369689Y399651D01*
X369762Y399742D01*
X369839Y399831D01*
X369918Y399916D01*
X370000Y400000D01*
X416100Y395000D02*
X416186Y394919D01*
X416275Y394841D01*
X416366Y394765D01*
X416459Y394693D01*
X416555Y394624D01*
X416654Y394558D01*
X416754Y394496D01*
X416857Y394437D01*
X416961Y394382D01*
X417067Y394330D01*
X417175Y394281D01*
X417285Y394237D01*
X417396Y394196D01*
X417508Y394159D01*
X417621Y394125D01*
X417736Y394096D01*
X417851Y394070D01*
X417967Y394049D01*
X418084Y394031D01*
X418202Y394017D01*
X418319Y394008D01*
X418438Y394002D01*
X418556Y394000D01*
X418674Y394002D01*
X418792Y394008D01*
X418910Y394019D01*
X419027Y394033D01*
X419144Y394051D01*
X419260Y394073D01*
X419376Y394099D01*
X419490Y394129D01*
X419603Y394162D01*
X419715Y394200D01*
X419826Y394241D01*
X419936Y394286D01*
X420043Y394335D01*
X420149Y394387D01*
X420254Y394443D01*
X420356Y394502D01*
X420456Y394565D01*
X420554Y394631D01*
X420650Y394700D01*
X420743Y394772D01*
X420834Y394848D01*
X420922Y394927D01*
X421008Y395008D01*
X421091Y395093D01*
X421171Y395180D01*
X421247Y395270D01*
X421321Y395362D01*
X421392Y395457D01*
X421459Y395554D01*
X421523Y395654D01*
X421584Y395755D01*
X421641Y395858D01*
X421695Y395964D01*
X421745Y396071D01*
X421791Y396180D01*
X421834Y396290D01*
X421873Y396401D01*
X421908Y396514D01*
X421940Y396628D01*
X421967Y396743D01*
X421991Y396859D01*
X422011Y396976D01*
X422026Y397093D01*
X422038Y397211D01*
X422046Y397329D01*
X422050Y397447D01*
X422049Y397565D01*
X422045Y397683D01*
X422037Y397801D01*
X422025Y397919D01*
X422009Y398036D01*
X421989Y398152D01*
X421965Y398268D01*
X421937Y398383D01*
X421905Y398497D01*
X421869Y398610D01*
X421830Y398721D01*
X421787Y398831D01*
X421740Y398940D01*
X421690Y399047D01*
X421636Y399152D01*
X421578Y399255D01*
X421517Y399356D01*
X421453Y399455D01*
X421385Y399552D01*
X421314Y399647D01*
X421240Y399739D01*
X421163Y399829D01*
X421083Y399916D01*
X421000Y400000D01*
X276100Y395000D02*
X234900Y395000D01*
X230000Y400000D02*
X230000Y411500D01*
X281000Y411500D02*
X281000Y400000D01*
X230000Y411500D02*
X224500Y411500D01*
X281000Y411500D02*
X286500Y411500D01*
X234900Y395000D02*
X234815Y394920D01*
X234727Y394842D01*
X234637Y394768D01*
X234545Y394696D01*
X234450Y394628D01*
X234353Y394562D01*
X234254Y394500D01*
X234152Y394442D01*
X234049Y394387D01*
X233944Y394335D01*
X233838Y394287D01*
X233729Y394242D01*
X233620Y394201D01*
X233509Y394164D01*
X233397Y394131D01*
X233284Y394101D01*
X233170Y394075D01*
X233055Y394053D01*
X232939Y394034D01*
X232823Y394020D01*
X232707Y394009D01*
X232590Y394003D01*
X232473Y394000D01*
X232356Y394001D01*
X232239Y394006D01*
X232123Y394015D01*
X232006Y394028D01*
X231891Y394045D01*
X231776Y394066D01*
X231661Y394090D01*
X231548Y394118D01*
X231435Y394150D01*
X231324Y394186D01*
X231214Y394226D01*
X231105Y394269D01*
X230998Y394316D01*
X230892Y394366D01*
X230788Y394420D01*
X230686Y394477D01*
X230586Y394537D01*
X230488Y394601D01*
X230393Y394669D01*
X230299Y394739D01*
X230208Y394812D01*
X230119Y394889D01*
X230034Y394968D01*
X229950Y395050D01*
X229870Y395135D01*
X229792Y395223D01*
X229718Y395313D01*
X229646Y395405D01*
X229578Y395500D01*
X229512Y395597D01*
X229450Y395696D01*
X229392Y395798D01*
X229337Y395901D01*
X229285Y396006D01*
X229237Y396112D01*
X229192Y396221D01*
X229151Y396330D01*
X229114Y396441D01*
X229081Y396553D01*
X229051Y396666D01*
X229025Y396780D01*
X229003Y396895D01*
X228984Y397011D01*
X228970Y397127D01*
X228959Y397243D01*
X228953Y397360D01*
X228950Y397477D01*
X228951Y397594D01*
X228956Y397711D01*
X228965Y397827D01*
X228978Y397944D01*
X228995Y398059D01*
X229016Y398174D01*
X229040Y398289D01*
X229068Y398402D01*
X229100Y398515D01*
X229136Y398626D01*
X229176Y398736D01*
X229219Y398845D01*
X229266Y398952D01*
X229316Y399058D01*
X229370Y399162D01*
X229427Y399264D01*
X229487Y399364D01*
X229551Y399462D01*
X229619Y399557D01*
X229689Y399651D01*
X229762Y399742D01*
X229839Y399831D01*
X229918Y399916D01*
X230000Y400000D01*
X276100Y395000D02*
X276186Y394919D01*
X276275Y394841D01*
X276366Y394765D01*
X276459Y394693D01*
X276555Y394624D01*
X276654Y394558D01*
X276754Y394496D01*
X276857Y394437D01*
X276961Y394382D01*
X277067Y394330D01*
X277175Y394281D01*
X277285Y394237D01*
X277396Y394196D01*
X277508Y394159D01*
X277621Y394125D01*
X277736Y394096D01*
X277851Y394070D01*
X277967Y394049D01*
X278084Y394031D01*
X278202Y394017D01*
X278319Y394008D01*
X278438Y394002D01*
X278556Y394000D01*
X278674Y394002D01*
X278792Y394008D01*
X278910Y394019D01*
X279027Y394033D01*
X279144Y394051D01*
X279260Y394073D01*
X279376Y394099D01*
X279490Y394129D01*
X279603Y394162D01*
X279715Y394200D01*
X279826Y394241D01*
X279936Y394286D01*
X280043Y394335D01*
X280149Y394387D01*
X280254Y394443D01*
X280356Y394502D01*
X280456Y394565D01*
X280554Y394631D01*
X280650Y394700D01*
X280743Y394772D01*
X280834Y394848D01*
X280922Y394927D01*
X281008Y395008D01*
X281091Y395093D01*
X281171Y395180D01*
X281247Y395270D01*
X281321Y395362D01*
X281392Y395457D01*
X281459Y395554D01*
X281523Y395654D01*
X281584Y395755D01*
X281641Y395858D01*
X281695Y395964D01*
X281745Y396071D01*
X281791Y396180D01*
X281834Y396290D01*
X281873Y396401D01*
X281908Y396514D01*
X281940Y396628D01*
X281967Y396743D01*
X281991Y396859D01*
X282011Y396976D01*
X282026Y397093D01*
X282038Y397211D01*
X282046Y397329D01*
X282050Y397447D01*
X282049Y397565D01*
X282045Y397683D01*
X282037Y397801D01*
X282025Y397919D01*
X282009Y398036D01*
X281989Y398152D01*
X281965Y398268D01*
X281937Y398383D01*
X281905Y398497D01*
X281869Y398610D01*
X281830Y398721D01*
X281787Y398831D01*
X281740Y398940D01*
X281690Y399047D01*
X281636Y399152D01*
X281578Y399255D01*
X281517Y399356D01*
X281453Y399455D01*
X281385Y399552D01*
X281314Y399647D01*
X281240Y399739D01*
X281163Y399829D01*
X281083Y399916D01*
X281000Y400000D01*
X516400Y395000D02*
X557600Y395000D01*
X511500Y400000D02*
X511500Y411500D01*
X562500Y411500D02*
X562500Y400000D01*
X511500Y411500D02*
X506000Y411500D01*
X562500Y411500D02*
X568000Y411500D01*
X516400Y395000D02*
X516315Y394920D01*
X516227Y394842D01*
X516137Y394768D01*
X516045Y394696D01*
X515950Y394628D01*
X515853Y394562D01*
X515754Y394500D01*
X515652Y394442D01*
X515549Y394387D01*
X515444Y394335D01*
X515338Y394287D01*
X515229Y394242D01*
X515120Y394201D01*
X515009Y394164D01*
X514897Y394131D01*
X514784Y394101D01*
X514670Y394075D01*
X514555Y394053D01*
X514439Y394034D01*
X514323Y394020D01*
X514207Y394009D01*
X514090Y394003D01*
X513973Y394000D01*
X513856Y394001D01*
X513739Y394006D01*
X513623Y394015D01*
X513506Y394028D01*
X513391Y394045D01*
X513276Y394066D01*
X513161Y394090D01*
X513048Y394118D01*
X512935Y394150D01*
X512824Y394186D01*
X512714Y394226D01*
X512605Y394269D01*
X512498Y394316D01*
X512392Y394366D01*
X512288Y394420D01*
X512186Y394477D01*
X512086Y394537D01*
X511988Y394601D01*
X511893Y394669D01*
X511799Y394739D01*
X511708Y394812D01*
X511619Y394889D01*
X511534Y394968D01*
X511450Y395050D01*
X511370Y395135D01*
X511292Y395223D01*
X511218Y395313D01*
X511146Y395405D01*
X511078Y395500D01*
X511012Y395597D01*
X510950Y395696D01*
X510892Y395798D01*
X510837Y395901D01*
X510785Y396006D01*
X510737Y396112D01*
X510692Y396221D01*
X510651Y396330D01*
X510614Y396441D01*
X510581Y396553D01*
X510551Y396666D01*
X510525Y396780D01*
X510503Y396895D01*
X510484Y397011D01*
X510470Y397127D01*
X510459Y397243D01*
X510453Y397360D01*
X510450Y397477D01*
X510451Y397594D01*
X510456Y397711D01*
X510465Y397827D01*
X510478Y397944D01*
X510495Y398059D01*
X510516Y398174D01*
X510540Y398289D01*
X510568Y398402D01*
X510600Y398515D01*
X510636Y398626D01*
X510676Y398736D01*
X510719Y398845D01*
X510766Y398952D01*
X510816Y399058D01*
X510870Y399162D01*
X510927Y399264D01*
X510987Y399364D01*
X511051Y399462D01*
X511119Y399557D01*
X511189Y399651D01*
X511262Y399742D01*
X511339Y399831D01*
X511418Y399916D01*
X511500Y400000D01*
X557600Y395000D02*
X557686Y394919D01*
X557775Y394841D01*
X557866Y394765D01*
X557959Y394693D01*
X558055Y394624D01*
X558154Y394558D01*
X558254Y394496D01*
X558357Y394437D01*
X558461Y394382D01*
X558567Y394330D01*
X558675Y394281D01*
X558785Y394237D01*
X558896Y394196D01*
X559008Y394159D01*
X559121Y394125D01*
X559236Y394096D01*
X559351Y394070D01*
X559467Y394049D01*
X559584Y394031D01*
X559702Y394017D01*
X559819Y394008D01*
X559938Y394002D01*
X560056Y394000D01*
X560174Y394002D01*
X560292Y394008D01*
X560410Y394019D01*
X560527Y394033D01*
X560644Y394051D01*
X560760Y394073D01*
X560876Y394099D01*
X560990Y394129D01*
X561103Y394162D01*
X561215Y394200D01*
X561326Y394241D01*
X561436Y394286D01*
X561543Y394335D01*
X561649Y394387D01*
X561754Y394443D01*
X561856Y394502D01*
X561956Y394565D01*
X562054Y394631D01*
X562150Y394700D01*
X562243Y394772D01*
X562334Y394848D01*
X562422Y394927D01*
X562508Y395008D01*
X562591Y395093D01*
X562671Y395180D01*
X562747Y395270D01*
X562821Y395362D01*
X562892Y395457D01*
X562959Y395554D01*
X563023Y395654D01*
X563084Y395755D01*
X563141Y395858D01*
X563195Y395964D01*
X563245Y396071D01*
X563291Y396180D01*
X563334Y396290D01*
X563373Y396401D01*
X563408Y396514D01*
X563440Y396628D01*
X563467Y396743D01*
X563491Y396859D01*
X563511Y396976D01*
X563526Y397093D01*
X563538Y397211D01*
X563546Y397329D01*
X563550Y397447D01*
X563549Y397565D01*
X563545Y397683D01*
X563537Y397801D01*
X563525Y397919D01*
X563509Y398036D01*
X563489Y398152D01*
X563465Y398268D01*
X563437Y398383D01*
X563405Y398497D01*
X563369Y398610D01*
X563330Y398721D01*
X563287Y398831D01*
X563240Y398940D01*
X563190Y399047D01*
X563136Y399152D01*
X563078Y399255D01*
X563017Y399356D01*
X562953Y399455D01*
X562885Y399552D01*
X562814Y399647D01*
X562740Y399739D01*
X562663Y399829D01*
X562583Y399916D01*
X562500Y400000D01*
X557600Y16500D02*
X516400Y16500D01*
X562500Y11500D02*
X562500Y0D01*
X511500Y0D02*
X511500Y11500D01*
X562500Y0D02*
X568000Y0D01*
X511500Y0D02*
X506000Y0D01*
X557600Y16500D02*
X557686Y16581D01*
X557775Y16659D01*
X557866Y16735D01*
X557959Y16807D01*
X558055Y16876D01*
X558154Y16942D01*
X558254Y17004D01*
X558357Y17063D01*
X558461Y17118D01*
X558567Y17170D01*
X558675Y17219D01*
X558785Y17263D01*
X558896Y17304D01*
X559008Y17341D01*
X559121Y17375D01*
X559236Y17404D01*
X559351Y17430D01*
X559467Y17451D01*
X559584Y17469D01*
X559702Y17483D01*
X559819Y17492D01*
X559938Y17498D01*
X560056Y17500D01*
X560174Y17498D01*
X560292Y17492D01*
X560410Y17481D01*
X560527Y17467D01*
X560644Y17449D01*
X560760Y17427D01*
X560876Y17401D01*
X560990Y17371D01*
X561103Y17338D01*
X561215Y17300D01*
X561326Y17259D01*
X561436Y17214D01*
X561543Y17165D01*
X561649Y17113D01*
X561754Y17057D01*
X561856Y16998D01*
X561956Y16935D01*
X562054Y16869D01*
X562150Y16800D01*
X562243Y16728D01*
X562334Y16652D01*
X562422Y16573D01*
X562508Y16492D01*
X562591Y16407D01*
X562671Y16320D01*
X562747Y16230D01*
X562821Y16138D01*
X562892Y16043D01*
X562959Y15946D01*
X563023Y15846D01*
X563084Y15745D01*
X563141Y15642D01*
X563195Y15536D01*
X563245Y15429D01*
X563291Y15320D01*
X563334Y15210D01*
X563373Y15099D01*
X563408Y14986D01*
X563440Y14872D01*
X563467Y14757D01*
X563491Y14641D01*
X563511Y14524D01*
X563526Y14407D01*
X563538Y14289D01*
X563546Y14171D01*
X563550Y14053D01*
X563549Y13935D01*
X563545Y13817D01*
X563537Y13699D01*
X563525Y13581D01*
X563509Y13464D01*
X563489Y13348D01*
X563465Y13232D01*
X563437Y13117D01*
X563405Y13003D01*
X563369Y12890D01*
X563330Y12779D01*
X563287Y12669D01*
X563240Y12560D01*
X563190Y12453D01*
X563136Y12348D01*
X563078Y12245D01*
X563017Y12144D01*
X562953Y12045D01*
X562885Y11948D01*
X562814Y11853D01*
X562740Y11761D01*
X562663Y11671D01*
X562583Y11584D01*
X562500Y11500D01*
X516400Y16500D02*
X516314Y16581D01*
X516225Y16659D01*
X516134Y16735D01*
X516041Y16807D01*
X515945Y16876D01*
X515846Y16942D01*
X515746Y17004D01*
X515643Y17063D01*
X515539Y17118D01*
X515433Y17170D01*
X515325Y17219D01*
X515215Y17263D01*
X515104Y17304D01*
X514992Y17341D01*
X514879Y17375D01*
X514764Y17404D01*
X514649Y17430D01*
X514533Y17451D01*
X514416Y17469D01*
X514298Y17483D01*
X514181Y17492D01*
X514062Y17498D01*
X513944Y17500D01*
X513826Y17498D01*
X513708Y17492D01*
X513590Y17481D01*
X513473Y17467D01*
X513356Y17449D01*
X513240Y17427D01*
X513124Y17401D01*
X513010Y17371D01*
X512897Y17338D01*
X512785Y17300D01*
X512674Y17259D01*
X512564Y17214D01*
X512457Y17165D01*
X512351Y17113D01*
X512246Y17057D01*
X512144Y16998D01*
X512044Y16935D01*
X511946Y16869D01*
X511850Y16800D01*
X511757Y16728D01*
X511666Y16652D01*
X511578Y16573D01*
X511492Y16492D01*
X511409Y16407D01*
X511329Y16320D01*
X511253Y16230D01*
X511179Y16138D01*
X511108Y16043D01*
X511041Y15946D01*
X510977Y15846D01*
X510916Y15745D01*
X510859Y15642D01*
X510805Y15536D01*
X510755Y15429D01*
X510709Y15320D01*
X510666Y15210D01*
X510627Y15099D01*
X510592Y14986D01*
X510560Y14872D01*
X510533Y14757D01*
X510509Y14641D01*
X510489Y14524D01*
X510474Y14407D01*
X510462Y14289D01*
X510454Y14171D01*
X510450Y14053D01*
X510451Y13935D01*
X510455Y13817D01*
X510463Y13699D01*
X510475Y13581D01*
X510491Y13464D01*
X510511Y13348D01*
X510535Y13232D01*
X510563Y13117D01*
X510595Y13003D01*
X510631Y12890D01*
X510670Y12779D01*
X510713Y12669D01*
X510760Y12560D01*
X510810Y12453D01*
X510864Y12348D01*
X510922Y12245D01*
X510983Y12144D01*
X511047Y12045D01*
X511115Y11948D01*
X511186Y11853D01*
X511260Y11761D01*
X511337Y11671D01*
X511417Y11584D01*
X511500Y11500D01*
D11*
X0Y0D02*
X750000Y0D01*
X750500Y410500D01*
X500Y410500D01*
X0Y0D01*
X9000Y285000D02*
X9010Y284782D01*
X9038Y284566D01*
X9085Y284353D01*
X9151Y284145D01*
X9234Y283943D01*
X9335Y283750D01*
X9452Y283566D01*
X9585Y283393D01*
X9732Y283232D01*
X9893Y283085D01*
X10066Y282952D01*
X10250Y282835D01*
X10443Y282734D01*
X10645Y282651D01*
X10853Y282585D01*
X11066Y282538D01*
X11282Y282510D01*
X11500Y282500D01*
X18500Y282500D01*
X18718Y282510D01*
X18934Y282538D01*
X19147Y282585D01*
X19355Y282651D01*
X19557Y282734D01*
X19750Y282835D01*
X19934Y282952D01*
X20107Y283085D01*
X20268Y283232D01*
X20415Y283393D01*
X20548Y283566D01*
X20665Y283750D01*
X20766Y283943D01*
X20849Y284145D01*
X20915Y284353D01*
X20962Y284566D01*
X20991Y284782D01*
X21000Y285000D01*
X20991Y285218D01*
X20962Y285434D01*
X20915Y285647D01*
X20849Y285855D01*
X20766Y286057D01*
X20665Y286250D01*
X20548Y286434D01*
X20415Y286607D01*
X20268Y286768D01*
X20107Y286915D01*
X19934Y287048D01*
X19750Y287165D01*
X19557Y287266D01*
X19355Y287349D01*
X19147Y287415D01*
X18934Y287462D01*
X18718Y287491D01*
X18500Y287500D01*
X11500Y287500D01*
X11282Y287491D01*
X11066Y287462D01*
X10853Y287415D01*
X10645Y287349D01*
X10443Y287266D01*
X10250Y287165D01*
X10066Y287048D01*
X9893Y286915D01*
X9732Y286768D01*
X9585Y286607D01*
X9452Y286434D01*
X9335Y286250D01*
X9234Y286057D01*
X9151Y285855D01*
X9085Y285647D01*
X9038Y285434D01*
X9010Y285218D01*
X9000Y285000D01*
X9000Y351000D02*
X9010Y350782D01*
X9038Y350566D01*
X9085Y350353D01*
X9151Y350145D01*
X9234Y349943D01*
X9335Y349750D01*
X9452Y349566D01*
X9585Y349393D01*
X9732Y349232D01*
X9893Y349085D01*
X10066Y348952D01*
X10250Y348835D01*
X10443Y348734D01*
X10645Y348651D01*
X10853Y348585D01*
X11066Y348538D01*
X11282Y348510D01*
X11500Y348500D01*
X18500Y348500D01*
X18718Y348510D01*
X18934Y348538D01*
X19147Y348585D01*
X19355Y348651D01*
X19557Y348734D01*
X19750Y348835D01*
X19934Y348952D01*
X20107Y349085D01*
X20268Y349232D01*
X20415Y349393D01*
X20548Y349566D01*
X20665Y349750D01*
X20766Y349943D01*
X20849Y350145D01*
X20915Y350353D01*
X20962Y350566D01*
X20991Y350782D01*
X21000Y351000D01*
X20991Y351218D01*
X20962Y351434D01*
X20915Y351647D01*
X20849Y351855D01*
X20766Y352057D01*
X20665Y352250D01*
X20548Y352434D01*
X20415Y352607D01*
X20268Y352768D01*
X20107Y352915D01*
X19934Y353048D01*
X19750Y353165D01*
X19557Y353266D01*
X19355Y353349D01*
X19147Y353415D01*
X18934Y353462D01*
X18718Y353491D01*
X18500Y353500D01*
X11500Y353500D01*
X11282Y353491D01*
X11066Y353462D01*
X10853Y353415D01*
X10645Y353349D01*
X10443Y353266D01*
X10250Y353165D01*
X10066Y353048D01*
X9893Y352915D01*
X9732Y352768D01*
X9585Y352607D01*
X9452Y352434D01*
X9335Y352250D01*
X9234Y352057D01*
X9151Y351855D01*
X9085Y351647D01*
X9038Y351434D01*
X9010Y351218D01*
X9000Y351000D01*
X745000Y386063D02*
X744924Y385194D01*
X744772Y384334D01*
X744546Y383490D01*
X744248Y382670D01*
X743879Y381878D01*
X743442Y381122D01*
X742941Y380407D01*
X742380Y379738D01*
X741762Y379120D01*
X741093Y378559D01*
X740378Y378058D01*
X739622Y377621D01*
X738830Y377252D01*
X738010Y376954D01*
X737166Y376728D01*
X736307Y376576D01*
X735437Y376500D01*
X734563Y376500D01*
X733694Y376576D01*
X732834Y376728D01*
X731990Y376954D01*
X731170Y377252D01*
X730378Y377621D01*
X729622Y378058D01*
X728907Y378559D01*
X728238Y379120D01*
X727620Y379738D01*
X727059Y380407D01*
X726558Y381122D01*
X726121Y381878D01*
X725752Y382670D01*
X725454Y383490D01*
X725228Y384334D01*
X725076Y385194D01*
X725000Y386063D01*
X725000Y386937D01*
X725076Y387807D01*
X725228Y388666D01*
X725454Y389510D01*
X725752Y390330D01*
X726121Y391122D01*
X726558Y391878D01*
X727059Y392593D01*
X727620Y393262D01*
X728238Y393880D01*
X728907Y394441D01*
X729622Y394942D01*
X730378Y395379D01*
X731170Y395748D01*
X731990Y396046D01*
X732834Y396272D01*
X733694Y396424D01*
X734563Y396500D01*
X735437Y396500D01*
X736307Y396424D01*
X737166Y396272D01*
X738010Y396046D01*
X738830Y395748D01*
X739622Y395379D01*
X740378Y394942D01*
X741093Y394441D01*
X741762Y393880D01*
X742380Y393262D01*
X742941Y392593D01*
X743442Y391878D01*
X743879Y391122D01*
X744248Y390330D01*
X744546Y389510D01*
X744772Y388666D01*
X744924Y387807D01*
X745000Y386937D01*
X745000Y386063D01*
X745000Y16063D02*
X744924Y15194D01*
X744772Y14334D01*
X744546Y13490D01*
X744248Y12670D01*
X743879Y11878D01*
X743442Y11122D01*
X742941Y10407D01*
X742380Y9738D01*
X741762Y9120D01*
X741093Y8559D01*
X740378Y8058D01*
X739622Y7621D01*
X738830Y7252D01*
X738010Y6954D01*
X737166Y6728D01*
X736307Y6576D01*
X735437Y6500D01*
X734563Y6500D01*
X733694Y6576D01*
X732834Y6728D01*
X731990Y6954D01*
X731170Y7252D01*
X730378Y7621D01*
X729622Y8058D01*
X728907Y8559D01*
X728238Y9120D01*
X727620Y9738D01*
X727059Y10407D01*
X726558Y11122D01*
X726121Y11878D01*
X725752Y12670D01*
X725454Y13490D01*
X725228Y14334D01*
X725076Y15194D01*
X725000Y16063D01*
X725000Y16937D01*
X725076Y17807D01*
X725228Y18666D01*
X725454Y19510D01*
X725752Y20330D01*
X726121Y21122D01*
X726558Y21878D01*
X727059Y22593D01*
X727620Y23262D01*
X728238Y23880D01*
X728907Y24441D01*
X729622Y24942D01*
X730378Y25379D01*
X731170Y25748D01*
X731990Y26046D01*
X732834Y26272D01*
X733694Y26424D01*
X734563Y26500D01*
X735437Y26500D01*
X736307Y26424D01*
X737166Y26272D01*
X738010Y26046D01*
X738830Y25748D01*
X739622Y25379D01*
X740378Y24942D01*
X741093Y24441D01*
X741762Y23880D01*
X742380Y23262D01*
X742941Y22593D01*
X743442Y21878D01*
X743879Y21122D01*
X744248Y20330D01*
X744546Y19510D01*
X744772Y18666D01*
X744924Y17807D01*
X745000Y16937D01*
X745000Y16063D01*
X25000Y396063D02*
X24924Y395194D01*
X24772Y394334D01*
X24546Y393490D01*
X24248Y392670D01*
X23879Y391878D01*
X23442Y391122D01*
X22941Y390407D01*
X22380Y389738D01*
X21762Y389120D01*
X21093Y388559D01*
X20378Y388058D01*
X19622Y387621D01*
X18830Y387252D01*
X18010Y386954D01*
X17166Y386728D01*
X16307Y386576D01*
X15437Y386500D01*
X14563Y386500D01*
X13694Y386576D01*
X12834Y386728D01*
X11990Y386954D01*
X11170Y387252D01*
X10378Y387621D01*
X9622Y388058D01*
X8907Y388559D01*
X8238Y389120D01*
X7620Y389738D01*
X7059Y390407D01*
X6558Y391122D01*
X6121Y391878D01*
X5752Y392670D01*
X5454Y393490D01*
X5228Y394334D01*
X5076Y395194D01*
X5000Y396063D01*
X5000Y396937D01*
X5076Y397807D01*
X5228Y398666D01*
X5454Y399510D01*
X5752Y400330D01*
X6121Y401122D01*
X6558Y401878D01*
X7059Y402593D01*
X7620Y403262D01*
X8238Y403880D01*
X8907Y404441D01*
X9622Y404942D01*
X10378Y405379D01*
X11170Y405748D01*
X11990Y406046D01*
X12834Y406272D01*
X13694Y406424D01*
X14563Y406500D01*
X15437Y406500D01*
X16307Y406424D01*
X17166Y406272D01*
X18010Y406046D01*
X18830Y405748D01*
X19622Y405379D01*
X20378Y404942D01*
X21093Y404441D01*
X21762Y403880D01*
X22380Y403262D01*
X22941Y402593D01*
X23442Y401878D01*
X23879Y401122D01*
X24248Y400330D01*
X24546Y399510D01*
X24772Y398666D01*
X24924Y397807D01*
X25000Y396937D01*
X25000Y396063D01*
X25000Y171063D02*
X24924Y170194D01*
X24772Y169334D01*
X24546Y168490D01*
X24248Y167670D01*
X23879Y166878D01*
X23442Y166122D01*
X22941Y165407D01*
X22380Y164738D01*
X21762Y164120D01*
X21093Y163559D01*
X20378Y163058D01*
X19622Y162621D01*
X18830Y162252D01*
X18010Y161954D01*
X17166Y161728D01*
X16307Y161576D01*
X15437Y161500D01*
X14563Y161500D01*
X13694Y161576D01*
X12834Y161728D01*
X11990Y161954D01*
X11170Y162252D01*
X10378Y162621D01*
X9622Y163058D01*
X8907Y163559D01*
X8238Y164120D01*
X7620Y164738D01*
X7059Y165407D01*
X6558Y166122D01*
X6121Y166878D01*
X5752Y167670D01*
X5454Y168490D01*
X5228Y169334D01*
X5076Y170194D01*
X5000Y171063D01*
X5000Y171937D01*
X5076Y172807D01*
X5228Y173666D01*
X5454Y174510D01*
X5752Y175330D01*
X6121Y176122D01*
X6558Y176878D01*
X7059Y177593D01*
X7620Y178262D01*
X8238Y178880D01*
X8907Y179441D01*
X9622Y179942D01*
X10378Y180379D01*
X11170Y180748D01*
X11990Y181046D01*
X12834Y181272D01*
X13694Y181424D01*
X14563Y181500D01*
X15437Y181500D01*
X16307Y181424D01*
X17166Y181272D01*
X18010Y181046D01*
X18830Y180748D01*
X19622Y180379D01*
X20378Y179942D01*
X21093Y179441D01*
X21762Y178880D01*
X22380Y178262D01*
X22941Y177593D01*
X23442Y176878D01*
X23879Y176122D01*
X24248Y175330D01*
X24546Y174510D01*
X24772Y173666D01*
X24924Y172807D01*
X25000Y171937D01*
X25000Y171063D01*
M02*
