G04 EAGLE Gerber RS-274X export*
G75*
%MOMM*%
%FSLAX34Y34*%
%LPD*%
%INSolderpaste Top*%
%IPPOS*%
%AMOC8*
5,1,8,0,0,1.08239X$1,22.5*%
G01*
%ADD10R,1.000000X1.100000*%
%ADD11R,1.100000X1.000000*%
%ADD12R,0.990600X0.304800*%
%ADD13R,0.900000X0.800000*%
%ADD14C,0.112500*%
%ADD15R,0.850000X1.500000*%
%ADD16R,0.300000X0.655000*%
%ADD17R,1.050000X0.650000*%
%ADD18R,1.500000X0.700000*%
%ADD19R,0.700000X1.500000*%
%ADD20R,1.000000X1.500000*%
%ADD21R,1.350000X0.400000*%
%ADD22R,1.400000X1.600000*%
%ADD23R,1.900000X1.900000*%
%ADD24C,0.900000*%
%ADD25R,0.900000X0.600000*%
%ADD26R,0.600000X0.900000*%
%ADD27R,0.900000X2.500000*%
%ADD28R,2.500000X0.900000*%
%ADD29C,0.075000*%
%ADD30C,0.175000*%
%ADD31R,1.500000X0.800000*%
%ADD32R,1.900000X1.400000*%
%ADD33R,1.400000X1.800000*%

G36*
X175047Y272037D02*
X175047Y272037D01*
X175042Y272044D01*
X175049Y272050D01*
X175049Y279800D01*
X175033Y279821D01*
X175035Y279834D01*
X169249Y285770D01*
X169249Y297230D01*
X175035Y303166D01*
X175039Y303192D01*
X175049Y303200D01*
X175049Y310950D01*
X175013Y310997D01*
X175006Y310992D01*
X175000Y310999D01*
X166100Y310999D01*
X166079Y310983D01*
X166066Y310985D01*
X160466Y305485D01*
X160462Y305462D01*
X160453Y305455D01*
X160454Y305453D01*
X160451Y305450D01*
X160451Y277550D01*
X160467Y277528D01*
X160466Y277515D01*
X166066Y272015D01*
X166092Y272011D01*
X166100Y272001D01*
X175000Y272001D01*
X175047Y272037D01*
G37*
G36*
X198921Y272017D02*
X198921Y272017D01*
X198935Y272015D01*
X204535Y277515D01*
X204538Y277542D01*
X204549Y277550D01*
X204549Y305450D01*
X204533Y305472D01*
X204535Y305485D01*
X198935Y310985D01*
X198908Y310989D01*
X198900Y310999D01*
X190000Y310999D01*
X189953Y310963D01*
X189958Y310956D01*
X189951Y310950D01*
X189951Y303200D01*
X189967Y303179D01*
X189965Y303166D01*
X195751Y297230D01*
X195751Y285770D01*
X189965Y279834D01*
X189961Y279808D01*
X189951Y279800D01*
X189951Y272050D01*
X189987Y272003D01*
X189994Y272008D01*
X190000Y272001D01*
X198900Y272001D01*
X198921Y272017D01*
G37*
D10*
X195050Y346220D03*
X195050Y363220D03*
D11*
X61450Y345680D03*
X78450Y345680D03*
X60450Y299280D03*
X77450Y299280D03*
D10*
X112050Y363780D03*
X112050Y346780D03*
X59750Y330280D03*
X76750Y330280D03*
X59450Y314880D03*
X76450Y314880D03*
X208350Y352880D03*
X225350Y352880D03*
X207550Y328780D03*
X224550Y328780D03*
D12*
X182398Y328140D03*
X182398Y334640D03*
X182398Y341140D03*
X182398Y347640D03*
X182398Y354140D03*
X182398Y360640D03*
X182398Y367140D03*
X182398Y373640D03*
X182398Y380140D03*
X182398Y386640D03*
X124042Y386640D03*
X124042Y380140D03*
X124042Y373640D03*
X124042Y367140D03*
X124042Y360640D03*
X124042Y354140D03*
X124042Y347640D03*
X124042Y341140D03*
X124042Y334640D03*
X124042Y328140D03*
D13*
X240550Y352180D03*
X240550Y333180D03*
X260550Y342680D03*
X298550Y333320D03*
X298550Y352320D03*
X278550Y342820D03*
D14*
X265512Y15228D02*
X265512Y11452D01*
X265512Y15228D02*
X268888Y15228D01*
X268888Y11452D01*
X265512Y11452D01*
X265512Y12521D02*
X268888Y12521D01*
X268888Y13590D02*
X265512Y13590D01*
X265512Y14659D02*
X268888Y14659D01*
X272012Y15228D02*
X272012Y11452D01*
X272012Y15228D02*
X275388Y15228D01*
X275388Y11452D01*
X272012Y11452D01*
X272012Y12521D02*
X275388Y12521D01*
X275388Y13590D02*
X272012Y13590D01*
X272012Y14659D02*
X275388Y14659D01*
X278512Y15228D02*
X278512Y11452D01*
X278512Y15228D02*
X281888Y15228D01*
X281888Y11452D01*
X278512Y11452D01*
X278512Y12521D02*
X281888Y12521D01*
X281888Y13590D02*
X278512Y13590D01*
X278512Y14659D02*
X281888Y14659D01*
X259012Y15228D02*
X259012Y11452D01*
X259012Y15228D02*
X262388Y15228D01*
X262388Y11452D01*
X259012Y11452D01*
X259012Y12521D02*
X262388Y12521D01*
X262388Y13590D02*
X259012Y13590D01*
X259012Y14659D02*
X262388Y14659D01*
X265512Y30852D02*
X265512Y34628D01*
X268888Y34628D01*
X268888Y30852D01*
X265512Y30852D01*
X265512Y31921D02*
X268888Y31921D01*
X268888Y32990D02*
X265512Y32990D01*
X265512Y34059D02*
X268888Y34059D01*
X272012Y34628D02*
X272012Y30852D01*
X272012Y34628D02*
X275388Y34628D01*
X275388Y30852D01*
X272012Y30852D01*
X272012Y31921D02*
X275388Y31921D01*
X275388Y32990D02*
X272012Y32990D01*
X272012Y34059D02*
X275388Y34059D01*
X278512Y34628D02*
X278512Y30852D01*
X278512Y34628D02*
X281888Y34628D01*
X281888Y30852D01*
X278512Y30852D01*
X278512Y31921D02*
X281888Y31921D01*
X281888Y32990D02*
X278512Y32990D01*
X278512Y34059D02*
X281888Y34059D01*
X259012Y34628D02*
X259012Y30852D01*
X259012Y34628D02*
X262388Y34628D01*
X262388Y30852D01*
X259012Y30852D01*
X259012Y31921D02*
X262388Y31921D01*
X262388Y32990D02*
X259012Y32990D01*
X259012Y34059D02*
X262388Y34059D01*
D10*
X284280Y317250D03*
X301280Y317250D03*
X284180Y302850D03*
X301180Y302850D03*
X293900Y31400D03*
X293900Y14400D03*
D15*
X356000Y36500D03*
X425000Y36500D03*
D16*
X373000Y61500D03*
X388000Y61500D03*
X398000Y61500D03*
X408000Y61500D03*
X413000Y61500D03*
X403000Y61500D03*
X393000Y61500D03*
X383000Y61500D03*
X378000Y61500D03*
X368000Y61500D03*
D11*
X232500Y13000D03*
X232500Y30000D03*
X247000Y13000D03*
X247000Y30000D03*
D17*
X322330Y327300D03*
X363830Y327300D03*
X363830Y348800D03*
X322330Y348800D03*
X363940Y314750D03*
X322440Y314750D03*
X322440Y293250D03*
X363940Y293250D03*
D18*
X614000Y201500D03*
X614000Y211500D03*
X614000Y191500D03*
X614000Y181500D03*
X614000Y221500D03*
D19*
X618000Y157500D03*
X628000Y157500D03*
X638000Y157500D03*
X648000Y157500D03*
X658000Y157500D03*
X668000Y157500D03*
X678000Y157500D03*
X688000Y157500D03*
X698000Y157500D03*
X708000Y157500D03*
X718000Y157500D03*
X728000Y157500D03*
X618000Y245500D03*
X628000Y245500D03*
X638000Y245500D03*
X648000Y245500D03*
X658000Y245500D03*
X668000Y245500D03*
X678000Y245500D03*
X688000Y245500D03*
X698000Y245500D03*
X708000Y245500D03*
X718000Y245500D03*
X728000Y245500D03*
D20*
X739500Y245500D03*
X739500Y157500D03*
D11*
X625500Y279500D03*
X625500Y262500D03*
X611000Y262500D03*
X611000Y279500D03*
X654500Y262500D03*
X654500Y279500D03*
X640000Y262500D03*
X640000Y279500D03*
D21*
X41700Y318000D03*
X41700Y311500D03*
X41700Y324500D03*
X41700Y331000D03*
X41700Y305000D03*
D22*
X41700Y350000D03*
X41700Y286000D03*
D23*
X14950Y330000D03*
X14950Y306000D03*
D24*
X11500Y351000D02*
X18500Y351000D01*
X18500Y285000D02*
X11500Y285000D01*
D25*
X95500Y253500D03*
X95500Y238500D03*
X200000Y261000D03*
X200000Y246000D03*
X200000Y231500D03*
X200000Y216500D03*
D26*
X145500Y266000D03*
X130500Y266000D03*
D27*
X131500Y179500D03*
X160500Y179500D03*
D28*
X69000Y268500D03*
X69000Y239500D03*
X169500Y231000D03*
X169500Y260000D03*
X69000Y222000D03*
X69000Y193000D03*
D25*
X111500Y253500D03*
X111500Y238500D03*
X95500Y209000D03*
X95500Y224000D03*
D26*
X145500Y250500D03*
X130500Y250500D03*
X145500Y235000D03*
X130500Y235000D03*
X145500Y219500D03*
X130500Y219500D03*
X130500Y204000D03*
X145500Y204000D03*
D25*
X200000Y187000D03*
X200000Y202000D03*
D26*
X199500Y172000D03*
X184500Y172000D03*
D25*
X184500Y202000D03*
X184500Y187000D03*
D26*
X120500Y291500D03*
X135500Y291500D03*
X135500Y307000D03*
X120500Y307000D03*
D29*
X375125Y193125D02*
X388775Y193125D01*
X388775Y190875D01*
X375125Y190875D01*
X375125Y193125D01*
X375125Y191587D02*
X388775Y191587D01*
X388775Y192299D02*
X375125Y192299D01*
X375125Y193011D02*
X388775Y193011D01*
X388775Y198125D02*
X375125Y198125D01*
X388775Y198125D02*
X388775Y195875D01*
X375125Y195875D01*
X375125Y198125D01*
X375125Y196587D02*
X388775Y196587D01*
X388775Y197299D02*
X375125Y197299D01*
X375125Y198011D02*
X388775Y198011D01*
X388775Y203125D02*
X375125Y203125D01*
X388775Y203125D02*
X388775Y200875D01*
X375125Y200875D01*
X375125Y203125D01*
X375125Y201587D02*
X388775Y201587D01*
X388775Y202299D02*
X375125Y202299D01*
X375125Y203011D02*
X388775Y203011D01*
X388775Y208125D02*
X375125Y208125D01*
X388775Y208125D02*
X388775Y205875D01*
X375125Y205875D01*
X375125Y208125D01*
X375125Y206587D02*
X388775Y206587D01*
X388775Y207299D02*
X375125Y207299D01*
X375125Y208011D02*
X388775Y208011D01*
X388775Y213125D02*
X375125Y213125D01*
X388775Y213125D02*
X388775Y210875D01*
X375125Y210875D01*
X375125Y213125D01*
X375125Y211587D02*
X388775Y211587D01*
X388775Y212299D02*
X375125Y212299D01*
X375125Y213011D02*
X388775Y213011D01*
X345875Y213125D02*
X332225Y213125D01*
X345875Y213125D02*
X345875Y210875D01*
X332225Y210875D01*
X332225Y213125D01*
X332225Y211587D02*
X345875Y211587D01*
X345875Y212299D02*
X332225Y212299D01*
X332225Y213011D02*
X345875Y213011D01*
X345875Y208125D02*
X332225Y208125D01*
X345875Y208125D02*
X345875Y205875D01*
X332225Y205875D01*
X332225Y208125D01*
X332225Y206587D02*
X345875Y206587D01*
X345875Y207299D02*
X332225Y207299D01*
X332225Y208011D02*
X345875Y208011D01*
X345875Y203125D02*
X332225Y203125D01*
X345875Y203125D02*
X345875Y200875D01*
X332225Y200875D01*
X332225Y203125D01*
X332225Y201587D02*
X345875Y201587D01*
X345875Y202299D02*
X332225Y202299D01*
X332225Y203011D02*
X345875Y203011D01*
X345875Y198125D02*
X332225Y198125D01*
X345875Y198125D02*
X345875Y195875D01*
X332225Y195875D01*
X332225Y198125D01*
X332225Y196587D02*
X345875Y196587D01*
X345875Y197299D02*
X332225Y197299D01*
X332225Y198011D02*
X345875Y198011D01*
X345875Y193125D02*
X332225Y193125D01*
X345875Y193125D02*
X345875Y190875D01*
X332225Y190875D01*
X332225Y193125D01*
X332225Y191587D02*
X345875Y191587D01*
X345875Y192299D02*
X332225Y192299D01*
X332225Y193011D02*
X345875Y193011D01*
D11*
X385000Y176500D03*
X368000Y176500D03*
X353000Y176500D03*
X336000Y176500D03*
X703500Y139000D03*
X720500Y139000D03*
X455000Y70500D03*
X438000Y70500D03*
D30*
X436375Y208125D02*
X440425Y208125D01*
X436375Y208125D02*
X436375Y209875D01*
X440425Y209875D01*
X440425Y208125D01*
X440425Y209787D02*
X436375Y209787D01*
X436375Y203125D02*
X440425Y203125D01*
X436375Y203125D02*
X436375Y204875D01*
X440425Y204875D01*
X440425Y203125D01*
X440425Y204787D02*
X436375Y204787D01*
X436375Y198125D02*
X440425Y198125D01*
X436375Y198125D02*
X436375Y199875D01*
X440425Y199875D01*
X440425Y198125D01*
X440425Y199787D02*
X436375Y199787D01*
X436375Y193125D02*
X440425Y193125D01*
X436375Y193125D02*
X436375Y194875D01*
X440425Y194875D01*
X440425Y193125D01*
X440425Y194787D02*
X436375Y194787D01*
X445875Y194425D02*
X445875Y190375D01*
X444125Y190375D01*
X444125Y194425D01*
X445875Y194425D01*
X445875Y192037D02*
X444125Y192037D01*
X444125Y193699D02*
X445875Y193699D01*
X450875Y194425D02*
X450875Y190375D01*
X449125Y190375D01*
X449125Y194425D01*
X450875Y194425D01*
X450875Y192037D02*
X449125Y192037D01*
X449125Y193699D02*
X450875Y193699D01*
X455875Y194425D02*
X455875Y190375D01*
X454125Y190375D01*
X454125Y194425D01*
X455875Y194425D01*
X455875Y192037D02*
X454125Y192037D01*
X454125Y193699D02*
X455875Y193699D01*
X459575Y194875D02*
X463625Y194875D01*
X463625Y193125D01*
X459575Y193125D01*
X459575Y194875D01*
X459575Y194787D02*
X463625Y194787D01*
X463625Y199875D02*
X459575Y199875D01*
X463625Y199875D02*
X463625Y198125D01*
X459575Y198125D01*
X459575Y199875D01*
X459575Y199787D02*
X463625Y199787D01*
X463625Y204875D02*
X459575Y204875D01*
X463625Y204875D02*
X463625Y203125D01*
X459575Y203125D01*
X459575Y204875D01*
X459575Y204787D02*
X463625Y204787D01*
X463625Y209875D02*
X459575Y209875D01*
X463625Y209875D02*
X463625Y208125D01*
X459575Y208125D01*
X459575Y209875D01*
X459575Y209787D02*
X463625Y209787D01*
X454125Y208575D02*
X454125Y212625D01*
X455875Y212625D01*
X455875Y208575D01*
X454125Y208575D01*
X454125Y210237D02*
X455875Y210237D01*
X455875Y211899D02*
X454125Y211899D01*
X449125Y212625D02*
X449125Y208575D01*
X449125Y212625D02*
X450875Y212625D01*
X450875Y208575D01*
X449125Y208575D01*
X449125Y210237D02*
X450875Y210237D01*
X450875Y211899D02*
X449125Y211899D01*
X444125Y212625D02*
X444125Y208575D01*
X444125Y212625D02*
X445875Y212625D01*
X445875Y208575D01*
X444125Y208575D01*
X444125Y210237D02*
X445875Y210237D01*
X445875Y211899D02*
X444125Y211899D01*
D11*
X439000Y178000D03*
X456000Y178000D03*
D31*
X57488Y58113D03*
X59488Y69113D03*
X57488Y80113D03*
X55488Y91113D03*
X57488Y102113D03*
X55488Y113113D03*
X57488Y124113D03*
X57488Y135113D03*
D32*
X18988Y11613D03*
X28988Y143113D03*
D33*
X160488Y127113D03*
X160488Y70113D03*
M02*
