G04 EAGLE Gerber RS-274X export*
G75*
%MOMM*%
%FSLAX34Y34*%
%LPD*%
%INSoldermask Bottom*%
%IPPOS*%
%AMOC8*
5,1,8,0,0,1.08239X$1,22.5*%
G01*
%ADD10C,2.101600*%
%ADD11R,2.101600X1.901600*%
%ADD12R,2.701600X2.351600*%
%ADD13R,2.901600X2.551600*%
%ADD14R,1.201600X1.101600*%
%ADD15R,1.101600X1.201600*%
%ADD16C,0.130963*%
%ADD17R,5.501600X5.501600*%
%ADD18R,1.601600X1.001600*%
%ADD19C,1.981200*%
%ADD20C,0.157581*%
%ADD21R,2.501600X4.501600*%
%ADD22R,1.801600X2.401600*%
%ADD23R,4.701600X1.101600*%
%ADD24R,3.501600X1.701600*%
%ADD25C,1.001600*%
%ADD26R,1.001600X1.701600*%
%ADD27R,1.001600X0.701600*%
%ADD28R,0.901600X0.901600*%
%ADD29R,0.701600X1.001600*%
%ADD30R,1.701800X1.270000*%
%ADD31R,1.551600X1.151600*%
%ADD32R,0.701600X0.901600*%


D10*
X735000Y386500D03*
X735000Y16500D03*
X15000Y396500D03*
X15000Y171500D03*
D11*
X54150Y34000D03*
X54150Y56000D03*
D12*
X16850Y34000D03*
D13*
X16850Y141000D03*
D14*
X110800Y52100D03*
X93800Y52100D03*
D15*
X78000Y36000D03*
X78000Y53000D03*
X110000Y67000D03*
X110000Y84000D03*
X111100Y35500D03*
X94100Y35500D03*
D14*
X110000Y97000D03*
X110000Y114000D03*
D15*
X230280Y171850D03*
X213280Y171850D03*
D16*
X132453Y49603D02*
X128247Y49603D01*
X132453Y49603D02*
X132453Y46397D01*
X128247Y46397D01*
X128247Y49603D01*
X128247Y47641D02*
X132453Y47641D01*
X132453Y48885D02*
X128247Y48885D01*
X128247Y54603D02*
X132453Y54603D01*
X132453Y51397D01*
X128247Y51397D01*
X128247Y54603D01*
X128247Y52641D02*
X132453Y52641D01*
X132453Y53885D02*
X128247Y53885D01*
X128247Y59603D02*
X132453Y59603D01*
X132453Y56397D01*
X128247Y56397D01*
X128247Y59603D01*
X128247Y57641D02*
X132453Y57641D01*
X132453Y58885D02*
X128247Y58885D01*
X128247Y64603D02*
X132453Y64603D01*
X132453Y61397D01*
X128247Y61397D01*
X128247Y64603D01*
X128247Y62641D02*
X132453Y62641D01*
X132453Y63885D02*
X128247Y63885D01*
X128247Y69603D02*
X132453Y69603D01*
X132453Y66397D01*
X128247Y66397D01*
X128247Y69603D01*
X128247Y67641D02*
X132453Y67641D01*
X132453Y68885D02*
X128247Y68885D01*
X128247Y74603D02*
X132453Y74603D01*
X132453Y71397D01*
X128247Y71397D01*
X128247Y74603D01*
X128247Y72641D02*
X132453Y72641D01*
X132453Y73885D02*
X128247Y73885D01*
X128247Y79603D02*
X132453Y79603D01*
X132453Y76397D01*
X128247Y76397D01*
X128247Y79603D01*
X128247Y77641D02*
X132453Y77641D01*
X132453Y78885D02*
X128247Y78885D01*
X128247Y84603D02*
X132453Y84603D01*
X132453Y81397D01*
X128247Y81397D01*
X128247Y84603D01*
X128247Y82641D02*
X132453Y82641D01*
X132453Y83885D02*
X128247Y83885D01*
X128247Y89603D02*
X132453Y89603D01*
X132453Y86397D01*
X128247Y86397D01*
X128247Y89603D01*
X128247Y87641D02*
X132453Y87641D01*
X132453Y88885D02*
X128247Y88885D01*
X128247Y94603D02*
X132453Y94603D01*
X132453Y91397D01*
X128247Y91397D01*
X128247Y94603D01*
X128247Y92641D02*
X132453Y92641D01*
X132453Y93885D02*
X128247Y93885D01*
X128247Y99603D02*
X132453Y99603D01*
X132453Y96397D01*
X128247Y96397D01*
X128247Y99603D01*
X128247Y97641D02*
X132453Y97641D01*
X132453Y98885D02*
X128247Y98885D01*
X128247Y104603D02*
X132453Y104603D01*
X132453Y101397D01*
X128247Y101397D01*
X128247Y104603D01*
X128247Y102641D02*
X132453Y102641D01*
X132453Y103885D02*
X128247Y103885D01*
X137103Y106047D02*
X137103Y110253D01*
X137103Y106047D02*
X133897Y106047D01*
X133897Y110253D01*
X137103Y110253D01*
X137103Y107291D02*
X133897Y107291D01*
X133897Y108535D02*
X137103Y108535D01*
X137103Y109779D02*
X133897Y109779D01*
X142103Y110253D02*
X142103Y106047D01*
X138897Y106047D01*
X138897Y110253D01*
X142103Y110253D01*
X142103Y107291D02*
X138897Y107291D01*
X138897Y108535D02*
X142103Y108535D01*
X142103Y109779D02*
X138897Y109779D01*
X147103Y110253D02*
X147103Y106047D01*
X143897Y106047D01*
X143897Y110253D01*
X147103Y110253D01*
X147103Y107291D02*
X143897Y107291D01*
X143897Y108535D02*
X147103Y108535D01*
X147103Y109779D02*
X143897Y109779D01*
X152103Y110253D02*
X152103Y106047D01*
X148897Y106047D01*
X148897Y110253D01*
X152103Y110253D01*
X152103Y107291D02*
X148897Y107291D01*
X148897Y108535D02*
X152103Y108535D01*
X152103Y109779D02*
X148897Y109779D01*
X157103Y110253D02*
X157103Y106047D01*
X153897Y106047D01*
X153897Y110253D01*
X157103Y110253D01*
X157103Y107291D02*
X153897Y107291D01*
X153897Y108535D02*
X157103Y108535D01*
X157103Y109779D02*
X153897Y109779D01*
X162103Y110253D02*
X162103Y106047D01*
X158897Y106047D01*
X158897Y110253D01*
X162103Y110253D01*
X162103Y107291D02*
X158897Y107291D01*
X158897Y108535D02*
X162103Y108535D01*
X162103Y109779D02*
X158897Y109779D01*
X167103Y110253D02*
X167103Y106047D01*
X163897Y106047D01*
X163897Y110253D01*
X167103Y110253D01*
X167103Y107291D02*
X163897Y107291D01*
X163897Y108535D02*
X167103Y108535D01*
X167103Y109779D02*
X163897Y109779D01*
X172103Y110253D02*
X172103Y106047D01*
X168897Y106047D01*
X168897Y110253D01*
X172103Y110253D01*
X172103Y107291D02*
X168897Y107291D01*
X168897Y108535D02*
X172103Y108535D01*
X172103Y109779D02*
X168897Y109779D01*
X177103Y110253D02*
X177103Y106047D01*
X173897Y106047D01*
X173897Y110253D01*
X177103Y110253D01*
X177103Y107291D02*
X173897Y107291D01*
X173897Y108535D02*
X177103Y108535D01*
X177103Y109779D02*
X173897Y109779D01*
X182103Y110253D02*
X182103Y106047D01*
X178897Y106047D01*
X178897Y110253D01*
X182103Y110253D01*
X182103Y107291D02*
X178897Y107291D01*
X178897Y108535D02*
X182103Y108535D01*
X182103Y109779D02*
X178897Y109779D01*
X187103Y110253D02*
X187103Y106047D01*
X183897Y106047D01*
X183897Y110253D01*
X187103Y110253D01*
X187103Y107291D02*
X183897Y107291D01*
X183897Y108535D02*
X187103Y108535D01*
X187103Y109779D02*
X183897Y109779D01*
X192103Y110253D02*
X192103Y106047D01*
X188897Y106047D01*
X188897Y110253D01*
X192103Y110253D01*
X192103Y107291D02*
X188897Y107291D01*
X188897Y108535D02*
X192103Y108535D01*
X192103Y109779D02*
X188897Y109779D01*
X193547Y101397D02*
X197753Y101397D01*
X193547Y101397D02*
X193547Y104603D01*
X197753Y104603D01*
X197753Y101397D01*
X197753Y102641D02*
X193547Y102641D01*
X193547Y103885D02*
X197753Y103885D01*
X197753Y96397D02*
X193547Y96397D01*
X193547Y99603D01*
X197753Y99603D01*
X197753Y96397D01*
X197753Y97641D02*
X193547Y97641D01*
X193547Y98885D02*
X197753Y98885D01*
X197753Y91397D02*
X193547Y91397D01*
X193547Y94603D01*
X197753Y94603D01*
X197753Y91397D01*
X197753Y92641D02*
X193547Y92641D01*
X193547Y93885D02*
X197753Y93885D01*
X197753Y86397D02*
X193547Y86397D01*
X193547Y89603D01*
X197753Y89603D01*
X197753Y86397D01*
X197753Y87641D02*
X193547Y87641D01*
X193547Y88885D02*
X197753Y88885D01*
X197753Y81397D02*
X193547Y81397D01*
X193547Y84603D01*
X197753Y84603D01*
X197753Y81397D01*
X197753Y82641D02*
X193547Y82641D01*
X193547Y83885D02*
X197753Y83885D01*
X197753Y76397D02*
X193547Y76397D01*
X193547Y79603D01*
X197753Y79603D01*
X197753Y76397D01*
X197753Y77641D02*
X193547Y77641D01*
X193547Y78885D02*
X197753Y78885D01*
X197753Y71397D02*
X193547Y71397D01*
X193547Y74603D01*
X197753Y74603D01*
X197753Y71397D01*
X197753Y72641D02*
X193547Y72641D01*
X193547Y73885D02*
X197753Y73885D01*
X197753Y66397D02*
X193547Y66397D01*
X193547Y69603D01*
X197753Y69603D01*
X197753Y66397D01*
X197753Y67641D02*
X193547Y67641D01*
X193547Y68885D02*
X197753Y68885D01*
X197753Y61397D02*
X193547Y61397D01*
X193547Y64603D01*
X197753Y64603D01*
X197753Y61397D01*
X197753Y62641D02*
X193547Y62641D01*
X193547Y63885D02*
X197753Y63885D01*
X197753Y56397D02*
X193547Y56397D01*
X193547Y59603D01*
X197753Y59603D01*
X197753Y56397D01*
X197753Y57641D02*
X193547Y57641D01*
X193547Y58885D02*
X197753Y58885D01*
X197753Y51397D02*
X193547Y51397D01*
X193547Y54603D01*
X197753Y54603D01*
X197753Y51397D01*
X197753Y52641D02*
X193547Y52641D01*
X193547Y53885D02*
X197753Y53885D01*
X197753Y46397D02*
X193547Y46397D01*
X193547Y49603D01*
X197753Y49603D01*
X197753Y46397D01*
X197753Y47641D02*
X193547Y47641D01*
X193547Y48885D02*
X197753Y48885D01*
X188897Y44953D02*
X188897Y40747D01*
X188897Y44953D02*
X192103Y44953D01*
X192103Y40747D01*
X188897Y40747D01*
X188897Y41991D02*
X192103Y41991D01*
X192103Y43235D02*
X188897Y43235D01*
X188897Y44479D02*
X192103Y44479D01*
X183897Y44953D02*
X183897Y40747D01*
X183897Y44953D02*
X187103Y44953D01*
X187103Y40747D01*
X183897Y40747D01*
X183897Y41991D02*
X187103Y41991D01*
X187103Y43235D02*
X183897Y43235D01*
X183897Y44479D02*
X187103Y44479D01*
X178897Y44953D02*
X178897Y40747D01*
X178897Y44953D02*
X182103Y44953D01*
X182103Y40747D01*
X178897Y40747D01*
X178897Y41991D02*
X182103Y41991D01*
X182103Y43235D02*
X178897Y43235D01*
X178897Y44479D02*
X182103Y44479D01*
X173897Y44953D02*
X173897Y40747D01*
X173897Y44953D02*
X177103Y44953D01*
X177103Y40747D01*
X173897Y40747D01*
X173897Y41991D02*
X177103Y41991D01*
X177103Y43235D02*
X173897Y43235D01*
X173897Y44479D02*
X177103Y44479D01*
X168897Y44953D02*
X168897Y40747D01*
X168897Y44953D02*
X172103Y44953D01*
X172103Y40747D01*
X168897Y40747D01*
X168897Y41991D02*
X172103Y41991D01*
X172103Y43235D02*
X168897Y43235D01*
X168897Y44479D02*
X172103Y44479D01*
X163897Y44953D02*
X163897Y40747D01*
X163897Y44953D02*
X167103Y44953D01*
X167103Y40747D01*
X163897Y40747D01*
X163897Y41991D02*
X167103Y41991D01*
X167103Y43235D02*
X163897Y43235D01*
X163897Y44479D02*
X167103Y44479D01*
X158897Y44953D02*
X158897Y40747D01*
X158897Y44953D02*
X162103Y44953D01*
X162103Y40747D01*
X158897Y40747D01*
X158897Y41991D02*
X162103Y41991D01*
X162103Y43235D02*
X158897Y43235D01*
X158897Y44479D02*
X162103Y44479D01*
X153897Y44953D02*
X153897Y40747D01*
X153897Y44953D02*
X157103Y44953D01*
X157103Y40747D01*
X153897Y40747D01*
X153897Y41991D02*
X157103Y41991D01*
X157103Y43235D02*
X153897Y43235D01*
X153897Y44479D02*
X157103Y44479D01*
X148897Y44953D02*
X148897Y40747D01*
X148897Y44953D02*
X152103Y44953D01*
X152103Y40747D01*
X148897Y40747D01*
X148897Y41991D02*
X152103Y41991D01*
X152103Y43235D02*
X148897Y43235D01*
X148897Y44479D02*
X152103Y44479D01*
X143897Y44953D02*
X143897Y40747D01*
X143897Y44953D02*
X147103Y44953D01*
X147103Y40747D01*
X143897Y40747D01*
X143897Y41991D02*
X147103Y41991D01*
X147103Y43235D02*
X143897Y43235D01*
X143897Y44479D02*
X147103Y44479D01*
X138897Y44953D02*
X138897Y40747D01*
X138897Y44953D02*
X142103Y44953D01*
X142103Y40747D01*
X138897Y40747D01*
X138897Y41991D02*
X142103Y41991D01*
X142103Y43235D02*
X138897Y43235D01*
X138897Y44479D02*
X142103Y44479D01*
X133897Y44953D02*
X133897Y40747D01*
X133897Y44953D02*
X137103Y44953D01*
X137103Y40747D01*
X133897Y40747D01*
X133897Y41991D02*
X137103Y41991D01*
X137103Y43235D02*
X133897Y43235D01*
X133897Y44479D02*
X137103Y44479D01*
D17*
X163000Y75500D03*
D15*
X78500Y67000D03*
X95500Y67000D03*
X78500Y82000D03*
X95500Y82000D03*
X78500Y97000D03*
X95500Y97000D03*
D14*
X96500Y142500D03*
X79500Y142500D03*
X96700Y127600D03*
X79700Y127600D03*
D15*
X474650Y37720D03*
X491650Y37720D03*
X474650Y9720D03*
X491650Y9720D03*
X474550Y23720D03*
X491550Y23720D03*
X78700Y112500D03*
X95700Y112500D03*
D18*
X708850Y34780D03*
X708850Y49780D03*
X739850Y49780D03*
X739850Y34780D03*
D19*
X711000Y396000D03*
X685600Y398540D03*
X660200Y396000D03*
X634800Y398540D03*
X609400Y396000D03*
X584000Y398540D03*
D20*
X162820Y206170D02*
X162820Y198130D01*
X161180Y198130D01*
X161180Y206170D01*
X162820Y206170D01*
X162820Y199627D02*
X161180Y199627D01*
X161180Y201124D02*
X162820Y201124D01*
X162820Y202621D02*
X161180Y202621D01*
X161180Y204118D02*
X162820Y204118D01*
X162820Y205615D02*
X161180Y205615D01*
X158820Y206170D02*
X158820Y198130D01*
X157180Y198130D01*
X157180Y206170D01*
X158820Y206170D01*
X158820Y199627D02*
X157180Y199627D01*
X157180Y201124D02*
X158820Y201124D01*
X158820Y202621D02*
X157180Y202621D01*
X157180Y204118D02*
X158820Y204118D01*
X158820Y205615D02*
X157180Y205615D01*
X154820Y206170D02*
X154820Y198130D01*
X153180Y198130D01*
X153180Y206170D01*
X154820Y206170D01*
X154820Y199627D02*
X153180Y199627D01*
X153180Y201124D02*
X154820Y201124D01*
X154820Y202621D02*
X153180Y202621D01*
X153180Y204118D02*
X154820Y204118D01*
X154820Y205615D02*
X153180Y205615D01*
X150820Y206170D02*
X150820Y198130D01*
X149180Y198130D01*
X149180Y206170D01*
X150820Y206170D01*
X150820Y199627D02*
X149180Y199627D01*
X149180Y201124D02*
X150820Y201124D01*
X150820Y202621D02*
X149180Y202621D01*
X149180Y204118D02*
X150820Y204118D01*
X150820Y205615D02*
X149180Y205615D01*
X146820Y206170D02*
X146820Y198130D01*
X145180Y198130D01*
X145180Y206170D01*
X146820Y206170D01*
X146820Y199627D02*
X145180Y199627D01*
X145180Y201124D02*
X146820Y201124D01*
X146820Y202621D02*
X145180Y202621D01*
X145180Y204118D02*
X146820Y204118D01*
X146820Y205615D02*
X145180Y205615D01*
X142820Y206170D02*
X142820Y198130D01*
X141180Y198130D01*
X141180Y206170D01*
X142820Y206170D01*
X142820Y199627D02*
X141180Y199627D01*
X141180Y201124D02*
X142820Y201124D01*
X142820Y202621D02*
X141180Y202621D01*
X141180Y204118D02*
X142820Y204118D01*
X142820Y205615D02*
X141180Y205615D01*
X138820Y206170D02*
X138820Y198130D01*
X137180Y198130D01*
X137180Y206170D01*
X138820Y206170D01*
X138820Y199627D02*
X137180Y199627D01*
X137180Y201124D02*
X138820Y201124D01*
X138820Y202621D02*
X137180Y202621D01*
X137180Y204118D02*
X138820Y204118D01*
X138820Y205615D02*
X137180Y205615D01*
X138820Y256830D02*
X138820Y264870D01*
X138820Y256830D02*
X137180Y256830D01*
X137180Y264870D01*
X138820Y264870D01*
X138820Y258327D02*
X137180Y258327D01*
X137180Y259824D02*
X138820Y259824D01*
X138820Y261321D02*
X137180Y261321D01*
X137180Y262818D02*
X138820Y262818D01*
X138820Y264315D02*
X137180Y264315D01*
X142820Y264870D02*
X142820Y256830D01*
X141180Y256830D01*
X141180Y264870D01*
X142820Y264870D01*
X142820Y258327D02*
X141180Y258327D01*
X141180Y259824D02*
X142820Y259824D01*
X142820Y261321D02*
X141180Y261321D01*
X141180Y262818D02*
X142820Y262818D01*
X142820Y264315D02*
X141180Y264315D01*
X146820Y264870D02*
X146820Y256830D01*
X145180Y256830D01*
X145180Y264870D01*
X146820Y264870D01*
X146820Y258327D02*
X145180Y258327D01*
X145180Y259824D02*
X146820Y259824D01*
X146820Y261321D02*
X145180Y261321D01*
X145180Y262818D02*
X146820Y262818D01*
X146820Y264315D02*
X145180Y264315D01*
X150820Y264870D02*
X150820Y256830D01*
X149180Y256830D01*
X149180Y264870D01*
X150820Y264870D01*
X150820Y258327D02*
X149180Y258327D01*
X149180Y259824D02*
X150820Y259824D01*
X150820Y261321D02*
X149180Y261321D01*
X149180Y262818D02*
X150820Y262818D01*
X150820Y264315D02*
X149180Y264315D01*
X154820Y264870D02*
X154820Y256830D01*
X153180Y256830D01*
X153180Y264870D01*
X154820Y264870D01*
X154820Y258327D02*
X153180Y258327D01*
X153180Y259824D02*
X154820Y259824D01*
X154820Y261321D02*
X153180Y261321D01*
X153180Y262818D02*
X154820Y262818D01*
X154820Y264315D02*
X153180Y264315D01*
X158820Y264870D02*
X158820Y256830D01*
X157180Y256830D01*
X157180Y264870D01*
X158820Y264870D01*
X158820Y258327D02*
X157180Y258327D01*
X157180Y259824D02*
X158820Y259824D01*
X158820Y261321D02*
X157180Y261321D01*
X157180Y262818D02*
X158820Y262818D01*
X158820Y264315D02*
X157180Y264315D01*
X162820Y264870D02*
X162820Y256830D01*
X161180Y256830D01*
X161180Y264870D01*
X162820Y264870D01*
X162820Y258327D02*
X161180Y258327D01*
X161180Y259824D02*
X162820Y259824D01*
X162820Y261321D02*
X161180Y261321D01*
X161180Y262818D02*
X162820Y262818D01*
X162820Y264315D02*
X161180Y264315D01*
X165330Y254320D02*
X173370Y254320D01*
X173370Y252680D01*
X165330Y252680D01*
X165330Y254320D01*
X165330Y254177D02*
X173370Y254177D01*
X173370Y250320D02*
X165330Y250320D01*
X173370Y250320D02*
X173370Y248680D01*
X165330Y248680D01*
X165330Y250320D01*
X165330Y250177D02*
X173370Y250177D01*
X173370Y246320D02*
X165330Y246320D01*
X173370Y246320D02*
X173370Y244680D01*
X165330Y244680D01*
X165330Y246320D01*
X165330Y246177D02*
X173370Y246177D01*
X173370Y242320D02*
X165330Y242320D01*
X173370Y242320D02*
X173370Y240680D01*
X165330Y240680D01*
X165330Y242320D01*
X165330Y242177D02*
X173370Y242177D01*
X173370Y238320D02*
X165330Y238320D01*
X173370Y238320D02*
X173370Y236680D01*
X165330Y236680D01*
X165330Y238320D01*
X165330Y238177D02*
X173370Y238177D01*
X173370Y234320D02*
X165330Y234320D01*
X173370Y234320D02*
X173370Y232680D01*
X165330Y232680D01*
X165330Y234320D01*
X165330Y234177D02*
X173370Y234177D01*
X173370Y230320D02*
X165330Y230320D01*
X173370Y230320D02*
X173370Y228680D01*
X165330Y228680D01*
X165330Y230320D01*
X165330Y230177D02*
X173370Y230177D01*
X173370Y226320D02*
X165330Y226320D01*
X173370Y226320D02*
X173370Y224680D01*
X165330Y224680D01*
X165330Y226320D01*
X165330Y226177D02*
X173370Y226177D01*
X173370Y222320D02*
X165330Y222320D01*
X173370Y222320D02*
X173370Y220680D01*
X165330Y220680D01*
X165330Y222320D01*
X165330Y222177D02*
X173370Y222177D01*
X173370Y218320D02*
X165330Y218320D01*
X173370Y218320D02*
X173370Y216680D01*
X165330Y216680D01*
X165330Y218320D01*
X165330Y218177D02*
X173370Y218177D01*
X173370Y214320D02*
X165330Y214320D01*
X173370Y214320D02*
X173370Y212680D01*
X165330Y212680D01*
X165330Y214320D01*
X165330Y214177D02*
X173370Y214177D01*
X173370Y210320D02*
X165330Y210320D01*
X173370Y210320D02*
X173370Y208680D01*
X165330Y208680D01*
X165330Y210320D01*
X165330Y210177D02*
X173370Y210177D01*
X134670Y210320D02*
X126630Y210320D01*
X134670Y210320D02*
X134670Y208680D01*
X126630Y208680D01*
X126630Y210320D01*
X126630Y210177D02*
X134670Y210177D01*
X134670Y214320D02*
X126630Y214320D01*
X134670Y214320D02*
X134670Y212680D01*
X126630Y212680D01*
X126630Y214320D01*
X126630Y214177D02*
X134670Y214177D01*
X134670Y218320D02*
X126630Y218320D01*
X134670Y218320D02*
X134670Y216680D01*
X126630Y216680D01*
X126630Y218320D01*
X126630Y218177D02*
X134670Y218177D01*
X134670Y222320D02*
X126630Y222320D01*
X134670Y222320D02*
X134670Y220680D01*
X126630Y220680D01*
X126630Y222320D01*
X126630Y222177D02*
X134670Y222177D01*
X134670Y226320D02*
X126630Y226320D01*
X134670Y226320D02*
X134670Y224680D01*
X126630Y224680D01*
X126630Y226320D01*
X126630Y226177D02*
X134670Y226177D01*
X134670Y230320D02*
X126630Y230320D01*
X134670Y230320D02*
X134670Y228680D01*
X126630Y228680D01*
X126630Y230320D01*
X126630Y230177D02*
X134670Y230177D01*
X134670Y234320D02*
X126630Y234320D01*
X134670Y234320D02*
X134670Y232680D01*
X126630Y232680D01*
X126630Y234320D01*
X126630Y234177D02*
X134670Y234177D01*
X134670Y238320D02*
X126630Y238320D01*
X134670Y238320D02*
X134670Y236680D01*
X126630Y236680D01*
X126630Y238320D01*
X126630Y238177D02*
X134670Y238177D01*
X134670Y242320D02*
X126630Y242320D01*
X134670Y242320D02*
X134670Y240680D01*
X126630Y240680D01*
X126630Y242320D01*
X126630Y242177D02*
X134670Y242177D01*
X134670Y246320D02*
X126630Y246320D01*
X134670Y246320D02*
X134670Y244680D01*
X126630Y244680D01*
X126630Y246320D01*
X126630Y246177D02*
X134670Y246177D01*
X134670Y250320D02*
X126630Y250320D01*
X134670Y250320D02*
X134670Y248680D01*
X126630Y248680D01*
X126630Y250320D01*
X126630Y250177D02*
X134670Y250177D01*
X134670Y254320D02*
X126630Y254320D01*
X134670Y254320D02*
X134670Y252680D01*
X126630Y252680D01*
X126630Y254320D01*
X126630Y254177D02*
X134670Y254177D01*
D21*
X150000Y231500D03*
D20*
X110670Y282680D02*
X103630Y282680D01*
X103630Y284320D01*
X110670Y284320D01*
X110670Y282680D01*
X110670Y284177D02*
X103630Y284177D01*
X103630Y286680D02*
X110670Y286680D01*
X103630Y286680D02*
X103630Y288320D01*
X110670Y288320D01*
X110670Y286680D01*
X110670Y288177D02*
X103630Y288177D01*
X103630Y290680D02*
X110670Y290680D01*
X103630Y290680D02*
X103630Y292320D01*
X110670Y292320D01*
X110670Y290680D01*
X110670Y292177D02*
X103630Y292177D01*
X103630Y294680D02*
X110670Y294680D01*
X103630Y294680D02*
X103630Y296320D01*
X110670Y296320D01*
X110670Y294680D01*
X110670Y296177D02*
X103630Y296177D01*
X103630Y298680D02*
X110670Y298680D01*
X103630Y298680D02*
X103630Y300320D01*
X110670Y300320D01*
X110670Y298680D01*
X110670Y300177D02*
X103630Y300177D01*
X103630Y302680D02*
X110670Y302680D01*
X103630Y302680D02*
X103630Y304320D01*
X110670Y304320D01*
X110670Y302680D01*
X110670Y304177D02*
X103630Y304177D01*
X103630Y306680D02*
X110670Y306680D01*
X103630Y306680D02*
X103630Y308320D01*
X110670Y308320D01*
X110670Y306680D01*
X110670Y308177D02*
X103630Y308177D01*
X133330Y306680D02*
X140370Y306680D01*
X133330Y306680D02*
X133330Y308320D01*
X140370Y308320D01*
X140370Y306680D01*
X140370Y308177D02*
X133330Y308177D01*
X133330Y302680D02*
X140370Y302680D01*
X133330Y302680D02*
X133330Y304320D01*
X140370Y304320D01*
X140370Y302680D01*
X140370Y304177D02*
X133330Y304177D01*
X133330Y298680D02*
X140370Y298680D01*
X133330Y298680D02*
X133330Y300320D01*
X140370Y300320D01*
X140370Y298680D01*
X140370Y300177D02*
X133330Y300177D01*
X133330Y294680D02*
X140370Y294680D01*
X133330Y294680D02*
X133330Y296320D01*
X140370Y296320D01*
X140370Y294680D01*
X140370Y296177D02*
X133330Y296177D01*
X133330Y290680D02*
X140370Y290680D01*
X133330Y290680D02*
X133330Y292320D01*
X140370Y292320D01*
X140370Y290680D01*
X140370Y292177D02*
X133330Y292177D01*
X133330Y286680D02*
X140370Y286680D01*
X133330Y286680D02*
X133330Y288320D01*
X140370Y288320D01*
X140370Y286680D01*
X140370Y288177D02*
X133330Y288177D01*
X133330Y282680D02*
X140370Y282680D01*
X133330Y282680D02*
X133330Y284320D01*
X140370Y284320D01*
X140370Y282680D01*
X140370Y284177D02*
X133330Y284177D01*
D22*
X122000Y295500D03*
D23*
X26000Y307500D03*
X26000Y327500D03*
D24*
X78000Y283500D03*
X78000Y351500D03*
D25*
X18500Y351000D02*
X11500Y351000D01*
X11500Y285000D02*
X18500Y285000D01*
D26*
X62000Y374500D03*
X91000Y374500D03*
D27*
X184500Y261000D03*
X184500Y246000D03*
X200000Y216500D03*
X200000Y231500D03*
X184500Y216500D03*
X184500Y231500D03*
D28*
X8000Y242500D03*
X8000Y257500D03*
D27*
X25000Y258500D03*
X25000Y243500D03*
X95500Y238500D03*
X95500Y253500D03*
X111500Y253500D03*
X111500Y238500D03*
D29*
X95000Y269000D03*
X110000Y269000D03*
D27*
X111500Y224000D03*
X111500Y209000D03*
X95500Y209000D03*
X95500Y224000D03*
D29*
X100500Y194000D03*
X115500Y194000D03*
D27*
X200000Y261000D03*
X200000Y246000D03*
X200000Y202000D03*
X200000Y187000D03*
D29*
X184500Y172000D03*
X199500Y172000D03*
D27*
X184500Y202000D03*
X184500Y187000D03*
D29*
X169500Y172000D03*
X154500Y172000D03*
X169500Y187500D03*
X154500Y187500D03*
D30*
X220500Y203760D03*
X220500Y219000D03*
X220500Y234240D03*
D14*
X182000Y152000D03*
X182000Y135000D03*
X154500Y151500D03*
X154500Y134500D03*
X209000Y139000D03*
X209000Y122000D03*
D19*
X439500Y397770D03*
X464900Y395230D03*
X490300Y397770D03*
X299000Y397770D03*
X324400Y395230D03*
X349800Y397770D03*
X59500Y396500D03*
X85000Y396500D03*
X452500Y13000D03*
X427100Y15540D03*
X401700Y13000D03*
X376300Y15540D03*
X350900Y13000D03*
X325500Y15540D03*
D15*
X222500Y78000D03*
X222500Y95000D03*
X209000Y78000D03*
X209000Y95000D03*
D27*
X138500Y170000D03*
X138500Y185000D03*
D29*
X100500Y174000D03*
X115500Y174000D03*
D31*
X372750Y385750D03*
X418250Y385750D03*
D32*
X363500Y403000D03*
X427500Y403000D03*
D31*
X232750Y385750D03*
X278250Y385750D03*
D32*
X223500Y403000D03*
X287500Y403000D03*
D31*
X514250Y385750D03*
X559750Y385750D03*
D32*
X505000Y403000D03*
X569000Y403000D03*
D31*
X559750Y25750D03*
X514250Y25750D03*
D32*
X569000Y8500D03*
X505000Y8500D03*
M02*
